<svg width="11" height="13" viewBox="0 0 11 13" fill="none" xmlns="http://www.w3.org/2000/svg">
<path d="M3.31192 7.77506L7.13747 3.94951M3.63074 4.26831H3.63711M6.81869 7.45627H6.82507M9.68784 12.2382V2.03674C9.68784 1.33248 9.11692 0.761556 8.41266 0.761556H2.03674C1.33248 0.761556 0.761556 1.33248 0.761556 2.03674V12.2382L2.99313 10.963L5.2247 12.2382L7.45627 10.963L9.68784 12.2382ZM3.94951 4.26831C3.94951 4.44438 3.80678 4.58711 3.63072 4.58711C3.45465 4.58711 3.31192 4.44438 3.31192 4.26831C3.31192 4.09224 3.45465 3.94951 3.63072 3.94951C3.80678 3.94951 3.94951 4.09224 3.94951 4.26831ZM7.13747 7.45627C7.13747 7.63233 6.99474 7.77506 6.81868 7.77506C6.64261 7.77506 6.49988 7.63233 6.49988 7.45627C6.49988 7.2802 6.64261 7.13747 6.81868 7.13747C6.99474 7.13747 7.13747 7.2802 7.13747 7.45627Z" stroke="white" stroke-width="1.5" stroke-linecap="round" stroke-linejoin="round"/>
</svg>
