<svg width="28" height="31" viewBox="0 0 28 31" fill="none" xmlns="http://www.w3.org/2000/svg">
<path d="M18.574 12.4274C20.4084 14.2706 21.9088 17.2889 21.0502 19.0823C18.7542 23.8779 1.62164 32.2896 0.166693 30.8332C-1.28825 29.3783 7.12786 12.2398 11.9249 9.94239C13.7183 9.08378 16.7366 10.5841 18.5813 12.4186C18.5799 12.42 18.5784 12.423 18.574 12.4274Z" fill="#FF8200"/>
<path d="M27.6492 10.4002C27.3517 9.29689 26.5913 8.18187 25.4557 8.05C23.3737 7.80824 20.0931 11.4888 20.3275 12.3621C20.562 13.2353 25.1979 14.7753 26.9283 13.5313C27.8206 12.8896 27.9466 11.5035 27.6535 10.4002H27.6492ZM21.2067 0.203853C22.7525 0.6229 24.3158 1.6881 24.5004 3.27931C24.8404 6.19799 19.6799 10.7987 18.455 10.4705C17.2301 10.1423 15.0719 3.64268 16.8169 1.21484C17.7166 -0.0364397 19.6594 -0.212264 21.2081 0.197992C21.2067 0.197992 21.2067 0.200923 21.2067 0.203853Z" fill="#43B02A"/>
</svg>
