<svg width="138" height="25" viewBox="0 0 138 25" fill="none" xmlns="http://www.w3.org/2000/svg">
<path d="M42.819 1.18148C44.2199 0.320386 45.8888 -0.0201938 47.5183 0.000920522C49.9694 0.088132 52.4104 0.727976 54.5686 1.89845C53.1916 3.12308 51.7375 4.26143 50.3394 5.46678C49.4213 5.24829 48.4731 4.89761 47.5211 5.1161C46.8849 5.25655 46.2386 5.56133 45.865 6.12132C45.4904 6.67672 45.5373 7.47907 45.9935 7.97572C46.5333 8.58528 47.3311 8.85977 48.0783 9.1159C49.7353 9.63733 51.4768 10.0256 52.9401 11.007C53.9114 11.6368 54.7238 12.541 55.1314 13.6307C55.5317 14.6451 55.5858 15.7605 55.505 16.8382C55.4215 18.2832 55.0607 19.7484 54.2474 20.9629C53.4046 22.2371 52.068 23.1009 50.6689 23.6554C47.7037 24.7772 44.3383 24.5358 41.4282 23.3626C40.3681 22.9367 39.3605 22.3903 38.4254 21.734C39.4493 20.3249 40.4885 18.927 41.543 17.5405C42.8245 18.1253 44.1235 18.6807 45.4675 19.1002C46.3745 19.4179 47.4155 19.2756 48.2353 18.7881C48.8623 18.4246 49.2754 17.725 49.2644 16.9971C49.3002 16.3875 48.9284 15.8339 48.4574 15.4833C47.4871 14.7635 46.2762 14.5193 45.1416 14.1769C43.7003 13.7399 42.1947 13.291 41.0298 12.2922C40.0759 11.4853 39.5655 10.2662 39.4223 9.04704C39.2644 7.57087 39.3471 6.03503 39.908 4.64515C40.466 3.19892 41.4904 1.98008 42.819 1.18148ZM7.76918 0.586615C9.72639 0.588451 11.6836 0.586614 13.6408 0.58845V14.0557C13.6408 15.4998 13.728 16.9603 13.459 18.3897C13.1974 19.8144 12.6071 21.2117 11.5899 22.2637C10.4791 23.4314 8.90659 24.074 7.32485 24.2586C6.17733 24.3898 4.98849 24.3898 3.88044 24.0272C2.25188 23.5278 0.914344 22.339 0 20.9271C1.15395 19.7034 2.32074 18.4943 3.47377 17.2697C3.91166 17.8435 4.37801 18.4071 4.95361 18.8514C5.34285 19.147 5.85048 19.3389 6.33887 19.1939C6.85479 19.0984 7.27341 18.6972 7.46252 18.218C7.70304 17.6277 7.76088 16.9814 7.76823 16.3508L7.76918 0.586615ZM16.8153 0.596701C18.7715 0.589356 20.7288 0.577426 22.6851 0.58936C22.6952 4.28621 22.686 7.98674 22.6887 11.6845C22.6952 13.1084 22.6318 14.5533 22.9724 15.9496C23.1946 16.8869 23.6481 17.826 24.4577 18.3915C25.3602 19.0277 26.5224 19.1406 27.5937 19.0378C28.5126 18.9432 29.4371 18.5384 29.998 17.7838C30.4827 17.1522 30.7278 16.3756 30.8627 15.6008C31.0179 14.6864 31.0519 13.7546 31.05 12.8274C31.0491 8.74869 31.0518 4.66628 31.0491 0.586615C33.0054 0.581107 34.9626 0.586602 36.9207 0.584766C36.9225 5.12986 36.9207 9.67589 36.9217 14.221C36.918 15.7633 36.8758 17.333 36.4177 18.8175C36.0123 20.1593 35.2107 21.3472 34.118 22.2252C32.8319 23.2662 31.229 23.8363 29.617 24.1273C27.8112 24.4394 25.9505 24.4321 24.1475 24.1043C22.552 23.8023 20.9674 23.2194 19.7006 22.1765C19.0313 21.6138 18.4438 20.9436 18.0151 20.1798C17.2504 18.8496 16.9676 17.3055 16.8749 15.7917C16.7932 14.6176 16.8245 13.4398 16.8181 12.2619C16.8153 8.37506 16.8162 4.48633 16.8153 0.596701ZM55.5537 0.58845C61.9128 0.586614 68.2719 0.58845 74.6282 0.58845C74.6493 2.30422 74.6649 4.02182 74.619 5.73759L68.0378 5.73667C68.0296 11.8442 68.047 17.9518 68.0433 24.0593C66.0852 24.0639 64.1261 24.0594 62.1698 24.0621C62.1405 17.9555 62.1644 11.8461 62.157 5.73852C59.9593 5.7376 57.7625 5.733 55.5666 5.74126C55.5381 4.02366 55.5629 2.30606 55.5537 0.58845ZM82.0274 0.58845C86.8782 0.586614 91.729 0.586614 96.5816 0.58845L96.5807 5.72566C93.689 5.75595 90.7963 5.72933 87.9046 5.73943C87.9046 7.07055 87.9018 8.40077 87.9055 9.73373C90.3116 9.76586 92.7186 9.74105 95.1257 9.75023C95.1183 11.4807 95.1385 13.2121 95.1156 14.9425C94.5905 15.0105 94.0415 14.9517 93.5072 14.971C91.639 14.971 89.7718 14.9692 87.9036 14.971C87.9073 16.2838 87.8982 17.5938 87.9092 18.9065C90.7991 18.9038 93.6908 18.9065 96.5816 18.9047C96.5807 20.6232 96.5825 22.3436 96.5798 24.063H82.0265L82.0274 0.58845ZM106.627 0.594866C108.781 0.596702 110.933 0.593028 113.086 0.596701C116.033 8.41911 118.963 16.2443 121.913 24.063C119.752 24.074 117.591 24.0639 115.43 24.0685C114.93 22.7261 114.433 21.3821 113.94 20.0366C111.162 20.0265 108.382 20.0302 105.603 20.0348C105.071 21.3806 104.532 22.7227 104.002 24.0685C101.857 24.0493 99.7112 24.0676 97.5676 24.0566C100.59 16.2369 103.603 8.41452 106.627 0.594866ZM118.909 0.59212C125.272 0.581104 131.636 0.58845 138 0.58845C137.996 2.30514 138.004 4.0209 137.996 5.73667C135.796 5.73483 133.595 5.74219 131.395 5.73392C131.374 11.8424 131.415 17.9536 131.398 24.0621C129.437 24.0584 127.478 24.0648 125.52 24.0584C125.502 17.9518 125.518 11.8442 125.512 5.73759C123.425 5.73759 121.337 5.73484 119.251 5.73943C119.133 5.73846 119.015 5.72179 118.901 5.68985C118.919 3.99153 118.9 2.29045 118.909 0.59212Z" fill="#FF3131"/>
<path d="M108.686 6.1399C110.452 9.03624 112.238 11.9207 113.999 14.8197C113.062 14.7968 112.123 14.7325 111.187 14.7215C111.373 15.6854 111.574 16.6457 111.768 17.6068C111.27 17.7032 110.777 17.84 110.271 17.8933C110.093 16.933 109.888 15.9774 109.695 15.0199C108.837 15.3843 108.009 15.8158 107.153 16.1885C107.379 14.4388 107.682 12.6982 107.937 10.9512C108.192 9.34836 108.417 7.74183 108.686 6.1399Z" fill="white"/>
</svg>
