<svg width="132" height="90" viewBox="0 0 132 90" fill="none" xmlns="http://www.w3.org/2000/svg">
<path opacity="0.1" d="M67.7836 45.7349C67.7836 45.7349 67.5576 37.2839 73.1885 34.5456C78.8195 31.8073 79.7212 32.0543 79.7212 32.0543C79.7212 32.0543 80.8464 34.5456 80.1708 35.4959C79.4951 36.449 79.0583 35.2436 79.0583 35.0208C79.0583 34.7979 80.4095 32.5671 83.8714 32.5671C87.3333 32.5671 89.1493 34.3979 89.1493 34.3979C89.1493 34.3979 89.1062 36.2718 88.1359 37.1201C88.1359 37.1201 89.5303 35.2892 91.768 35.4234C91.768 35.4234 94.8921 38.1456 95.9487 40.1537C95.9487 40.1537 93.2462 44.1268 88.4305 44.5725C88.4305 44.5725 90.879 45.0637 91.514 45.7322C91.514 45.7322 83.0256 48.9913 81.3366 47.4718C79.6475 45.9523 82.096 45.998 82.8148 46.7577C83.5336 47.5174 84.9686 49.7027 84.9686 49.7027C84.9686 49.7027 78.0855 51.6222 76.7343 48.2289L77.1152 50.9081C77.1152 50.9081 70.6105 49.6141 68.7107 47.4262C66.8108 45.2382 73.2292 41.9792 76.5234 41.1765C79.8177 40.3738 86.2792 39.7939 88.2223 40.1939M66.0946 44.8409C66.0946 44.8409 62.8003 38.4141 55.9603 37.7886C55.9603 37.7886 54.9469 40.0194 56.2982 41.3161C56.2982 41.3161 53.8497 36.5402 45.4858 38.7711C45.4858 38.7711 47.0072 42.61 48.1044 42.5215C49.2016 42.4329 49.3286 40.8248 48.1476 40.7818C46.964 40.7362 41.9604 40.7604 39.2376 43.8611C39.2376 43.8611 41.3482 45.5577 43.0373 45.2892C43.0373 45.2892 39.9132 45.5577 37.2946 52.6101C37.2946 52.6101 43.0373 55.198 46.1639 54.0383C46.1639 54.0383 45.0667 57.4316 43.7993 57.6088C43.7993 57.6088 50.8932 57.3403 51.6958 54.7524C52.4984 52.1644 49.8798 53.1443 50.05 53.9497C50.2201 54.755 51.993 57.6088 51.993 57.6088C51.993 57.6088 56.6385 57.8772 58.7492 54.0383C58.7492 54.0383 59.341 56.449 58.3275 57.2517C58.3275 57.2517 66.9429 51.2705 66.6889 46.6288C66.4349 41.9872 47.9317 47.1684 45.9404 49.2409M50.3827 42.4329C50.3827 42.4329 55.7038 43.9496 55.5362 46.806M60.1817 46.806C60.1817 46.806 59.1682 50.645 54.5228 51.6275M83.5768 36.6879C83.5768 36.6879 78.4462 38.4758 78.0144 41.4798M73.948 43.5926C73.948 43.5926 80.8743 44.4866 84.3362 43.2355M72.4012 33.1174C72.4012 33.1174 76.3431 27.0476 74.202 22.167C74.202 22.167 71.4995 23.2382 71.4995 24.1912C71.4995 24.1912 73.7524 14.5509 70.4861 10.1455C70.4861 10.1455 68.797 10.8596 68.571 12.4059C68.571 12.4059 63.7274 4.90791 61.8148 4.07301C61.8148 4.07301 60.7455 6.09717 61.1392 8.53745C61.1392 8.53745 58.1548 1.98978 54.7209 1.15756C54.7209 1.15756 53.4255 3.59784 53.8751 5.26496C53.8751 5.26496 48.2441 1.27837 46.329 2.70656C46.329 2.70656 44.64 7.52805 46.329 10.0274C46.329 10.0274 45.1454 9.55222 44.1904 10.2073C44.1904 10.2073 43.2887 16.516 48.808 20.2663C48.808 20.2663 46.1614 19.9093 45.9353 20.7415C45.7093 21.5737 46.837 25.9201 52.8058 28.6583C52.8058 28.6583 50.0474 28.7764 49.8773 29.2543C49.8773 29.2543 53.5931 35.802 55.6759 36.6932M66.9937 41.2114C66.9937 41.2114 55.0561 15.9764 54.0427 12.4059C53.0293 8.83544 57.6468 8.77638 58.8279 11.6328C60.9538 16.7737 58.8279 25.6919 58.8279 25.6919M68.1773 24.2503C68.1773 24.2503 68.0071 32.8812 64.6291 35.2006M64.6291 52.3416C64.6291 52.3416 60.4331 57.0718 60.9411 61.2678C60.9411 61.2678 64.7408 61.8047 65.6704 60.6423C65.6704 60.6423 61.8707 62.9645 61.9545 70.6397C61.9545 70.6397 64.3192 70.9081 65.6704 69.0316C65.6704 69.0316 61.9545 72.6907 65.0786 79.5659C65.0786 79.5659 67.6947 77.692 67.7811 75.7269C67.7811 75.7269 66.4299 80.28 70.9077 85.19C70.9077 85.19 72.3428 84.5645 72.8507 82.3337C72.8507 82.3337 75.3856 86.7068 79.1853 88.4035C79.1853 88.4035 82.985 85.3672 82.6472 78.8518C82.6472 78.8518 84.5064 80.1028 86.2792 80.4598C86.2792 80.4598 88.6439 76.0867 86.7872 70.3712C86.7872 70.3712 88.8979 71.9793 89.8275 71.4424C89.8275 71.4424 88.4763 61.9792 84.0848 60.194C84.0848 60.194 86.6196 60.4625 87.125 59.7484C87.125 59.7484 84.4124 51.6248 79.3554 50.9107M68.1773 48.7711C68.1773 48.7711 72.0126 52.0732 74.8395 62.9645C77.6664 73.8558 78.6798 77.1578 77.5826 78.6773C76.4854 80.1967 73.6127 80.1055 73.7829 77.7833C73.9531 75.4612 74.1207 66.6235 77.3311 64.6611M73.948 54.3953C73.948 54.3953 70.6537 56.8061 69.8943 61.4477C69.1349 66.0893 69.3863 68.3229 69.3863 68.3229M76.0612 26.4516C76.0612 26.4516 78.2582 21.214 83.1551 18.9241C83.1551 18.9241 84.5064 19.461 84.6766 22.6878C84.6766 22.6878 87.2114 15.7402 93.1217 15.2032C99.0347 14.6663 100.048 16.2744 100.048 16.2744C100.048 16.2744 103.005 21.8207 100.048 20.7737C97.0916 19.7267 101.907 16.8113 104.44 16.9885C106.972 17.1657 114.406 19.3697 118.122 24.2503L116.433 28.2368C116.433 28.2368 120.995 26.4516 122.346 26.8087C123.697 27.1657 130.453 36.1536 130.961 41.2114C130.961 41.2114 125.894 47.5228 118.798 47.7C118.798 47.7 117.952 50.1967 119.473 51.9819C119.473 51.9819 104.468 53.8262 107.762 50.6128C111.056 47.3993 108.27 55.7913 109.339 57.6114C109.339 57.6114 99.7941 59.6598 95.9512 55.7322L94.473 59.3027C94.473 59.3027 89.3398 58.6504 86.0278 54.3926M123.189 37.7886C111.196 33.7724 97.6809 37.1979 97.6809 37.1979C97.6809 37.1979 98.8645 44.4812 108.831 46.0919M111.871 27.8798C111.871 27.8798 106.466 30.3899 105.791 36.8141M95.9512 23.4154C95.9512 23.4154 92.276 25.5066 90.5869 32.0489M51.2285 33.7429C51.2285 33.7429 42.8671 25.0825 35.0645 29.0073L36.4056 31.5577C36.4056 31.5577 31.5467 28.3147 24.0083 30.0973C16.4698 31.8798 16.3022 35.7456 16.3022 35.7456C16.3022 35.7456 18.9285 40.6047 19.9876 38.0812C21.0468 35.5577 14.2906 37.8396 12.4492 38.806C10.6052 39.7725 5.91651 43.8047 4.91071 47.0235C4.91071 47.0235 10.4401 47.3429 10.6077 47.9872C10.7754 48.6315 2.23111 50.8866 1.05767 59.3457C1.05767 59.3457 3.90491 62.4866 8.59612 63.7752C8.59612 63.7752 12.4492 63.3242 12.7844 61.939C12.7844 61.939 12.5609 64.849 11.7227 65.6276C11.7227 65.6276 13.7318 67.8021 20.1552 68.7148C20.1552 68.7148 28.1077 66.7256 25.7202 65.3699C23.3327 64.0141 25.1563 69.9524 23.8407 71.6142C23.8407 71.6142 27.6937 74.5135 35.5115 73.2249C35.5115 73.2249 39.1969 72.0974 40.538 69.4128C40.538 69.4128 41.0409 72.7417 40.5939 73.8692C40.5939 73.8692 53.1588 71.5068 54.1087 65.0611C55.0587 58.6155 55.2822 66.135 55.2822 67.0477C55.2822 67.0477 61.2002 63.8799 61.759 60.6557M36.0246 49.4235C36.0246 49.4235 19.246 49.5416 7.30838 58.1134M12.1495 46.0919C12.1495 46.0919 23.2997 47.4986 26.6777 52.3899M35.2372 52.3899C35.2372 52.3899 34.4499 56.6853 28.4811 62.5188M27.3533 38.8302C27.3533 38.8302 30.5054 38.2342 35.2372 38.8302C39.9665 39.4261 40.98 40.9644 40.98 40.9644" stroke="#F65F5F" stroke-width="2" stroke-miterlimit="10"/>
</svg>
