<svg width="191" height="25" viewBox="0 0 191 25" fill="none" xmlns="http://www.w3.org/2000/svg">
<path d="M55.4044 6.98583V17.8142H57.8366C58.4573 17.804 59.0699 17.6556 59.638 17.378C60.2062 17.1004 60.7184 16.6991 61.1444 16.1979C62.0188 15.1703 62.4972 13.8044 62.4777 12.3911C62.4963 11.6891 62.3897 10.9899 62.1641 10.3338C61.9384 9.67766 61.5983 9.07749 61.163 8.56775C60.7353 8.06582 60.2194 7.66641 59.6474 7.39412C59.0753 7.12182 58.459 6.98241 57.8366 6.98446H55.4056L55.4044 6.98583ZM57.8366 3.5907C62.3698 3.5907 65.7992 7.48974 65.7992 12.3911C65.7992 17.2924 62.3698 21.2135 57.8366 21.2135H52.4723C52.4212 21.2127 52.3707 21.2008 52.3237 21.1785C52.2767 21.1561 52.2341 21.1236 52.1984 21.083C52.1627 21.0423 52.1346 20.9942 52.1156 20.9415C52.0966 20.8888 52.0872 20.8324 52.0879 20.7756V4.04641C52.0879 3.8041 52.2603 3.60722 52.4723 3.60722L57.8366 3.5907ZM77.484 18.1914C79.5428 18.1983 81.402 16.7926 82.1946 14.6297C82.5828 13.5729 82.6866 12.4138 82.4933 11.2929C82.3 10.172 81.818 9.13736 81.1056 8.31443C80.4057 7.50501 79.5011 6.95033 78.5112 6.72369C77.5213 6.49705 76.4928 6.6091 75.5615 7.04504C73.6589 7.93719 72.4162 10.0478 72.4124 12.3911C72.4124 15.5852 74.6784 18.1763 77.484 18.1914ZM77.4852 3.19143C82.2566 3.19143 85.9043 7.36583 85.9043 12.3911C85.9043 17.4163 82.2566 21.5907 77.484 21.5907C72.7126 21.5907 69.0959 17.437 69.0959 12.3911C69.0959 7.34517 72.7448 3.19143 77.4852 3.19143ZM97.4948 18.1914C100.302 18.1832 102.572 15.5893 102.57 12.3952C102.566 9.19832 100.29 6.60997 97.4848 6.6086C94.6768 6.6086 92.3997 9.19556 92.3959 12.3911C92.3959 13.9303 92.933 15.4062 93.8892 16.4939C94.3573 17.0299 94.9174 17.4563 95.5365 17.7479C96.1556 18.0394 96.8223 18.1903 97.4948 18.1914ZM97.4935 3.19143C102.25 3.19143 105.898 7.34517 105.898 12.3911C105.898 17.437 102.235 21.5907 97.4935 21.5907C92.7531 21.5907 89.0744 17.437 89.0744 12.3911C89.0744 7.34517 92.7221 3.19143 97.4935 3.19143ZM117.023 6.98583H113.594V11.6462H117.023C117.294 11.6596 117.565 11.6111 117.818 11.5038C118.071 11.3966 118.302 11.2328 118.497 11.0225C118.893 10.5957 119.119 10.0037 119.124 9.38143C119.134 9.06572 119.087 8.75102 118.984 8.45623C118.882 8.16144 118.727 7.89264 118.529 7.66596C118.334 7.44289 118.1 7.2675 117.84 7.15107C117.581 7.03465 117.303 6.97977 117.023 6.98997V6.98583ZM110.276 4.04641C110.276 3.8041 110.45 3.60722 110.662 3.60722H117.119C120.197 3.60722 122.425 6.17491 122.425 9.39933C122.448 11.5801 121.375 13.5834 119.662 14.5595L122.64 20.5526C122.682 20.6215 122.705 20.7017 122.707 20.7843C122.71 20.867 122.692 20.9488 122.655 21.0207C122.619 21.0915 122.566 21.1494 122.501 21.1875C122.437 21.2256 122.363 21.2422 122.291 21.2355H119.677C119.605 21.2366 119.534 21.215 119.472 21.1731C119.41 21.1312 119.36 21.0707 119.328 20.9987L116.457 15.0675H113.581V20.7619C113.582 20.8188 113.573 20.8753 113.554 20.9282C113.535 20.981 113.507 21.0293 113.471 21.0701C113.435 21.1109 113.393 21.1435 113.346 21.1659C113.299 21.1884 113.248 21.2003 113.197 21.2011H110.679C110.628 21.2003 110.577 21.1884 110.53 21.1659C110.483 21.1435 110.44 21.1109 110.405 21.0701C110.369 21.0293 110.341 20.981 110.322 20.9282C110.303 20.8753 110.294 20.8188 110.295 20.7619L110.277 4.04779L110.276 4.04641ZM131.072 7.06844V17.8982H133.503C134.123 17.8888 134.736 17.7415 135.304 17.4648C135.873 17.1881 136.385 16.7877 136.812 16.2873C137.687 15.261 138.166 13.8961 138.148 12.4833C138.167 11.7804 138.062 11.0802 137.837 10.4228C137.612 9.76546 137.272 9.16401 136.837 8.65311C136.408 8.15033 135.891 7.75043 135.318 7.47811C134.745 7.20578 134.127 7.06683 133.504 7.06982L131.072 7.06844ZM133.503 3.66918C138.036 3.66918 141.465 7.57234 141.465 12.4833C141.465 17.3943 138.036 21.2974 133.503 21.2974H128.155C128.103 21.2967 128.053 21.2848 128.006 21.2623C127.959 21.2398 127.916 21.2073 127.88 21.1665C127.845 21.1257 127.816 21.0774 127.798 21.0245C127.779 20.9716 127.769 20.9151 127.77 20.8582V4.1304C127.77 3.88671 127.943 3.68983 128.155 3.68983L133.503 3.66918ZM151.581 7.97574L149.7 13.7665H153.459L151.581 7.97574ZM148.596 17.0391L147.364 20.894C147.339 20.9847 147.288 21.0637 147.219 21.1186C147.149 21.1734 147.065 21.201 146.98 21.1969H144.308C144.24 21.204 144.172 21.1906 144.11 21.1581C144.048 21.1256 143.995 21.0753 143.957 21.0124C143.918 20.9488 143.894 20.8751 143.889 20.7984C143.883 20.7217 143.895 20.6446 143.924 20.5746L149.696 3.86193C149.723 3.77379 149.775 3.69784 149.844 3.64565C149.914 3.59345 149.997 3.56787 150.08 3.5728H153.07C153.153 3.56756 153.237 3.593 153.306 3.64522C153.376 3.69743 153.428 3.77355 153.455 3.86193L159.228 20.5746C159.256 20.6448 159.268 20.7219 159.262 20.7986C159.256 20.8753 159.232 20.949 159.193 21.0124C159.154 21.0751 159.102 21.1251 159.04 21.1573C158.978 21.1895 158.91 21.2027 158.842 21.1956H156.171C156.086 21.1996 156.002 21.1721 155.932 21.1172C155.863 21.0624 155.812 20.9834 155.787 20.8927L154.555 17.0377H148.596V17.0391ZM162.325 8.3516C162.325 5.58427 164.426 3.19143 167.743 3.19143C169.53 3.14715 171.26 3.88903 172.556 5.25522C172.595 5.29666 172.627 5.3466 172.648 5.402C172.67 5.45739 172.681 5.51707 172.681 5.57739C172.681 5.63771 172.67 5.69739 172.648 5.75278C172.627 5.80818 172.595 5.85812 172.556 5.89956L171.076 7.57234C171.041 7.61298 170.998 7.6453 170.951 7.66737C170.904 7.68944 170.854 7.70081 170.803 7.70081C170.752 7.70081 170.702 7.68944 170.655 7.66737C170.608 7.6453 170.566 7.61298 170.53 7.57234C169.833 6.84722 168.918 6.43638 167.963 6.41998C166.636 6.41998 165.655 7.29699 165.655 8.30892C165.655 11.5801 173.497 9.69258 173.497 15.9872C173.493 19.1772 171.376 21.5907 167.633 21.5907C166.593 21.6025 165.563 21.3821 164.601 20.9427C163.64 20.5032 162.768 19.8537 162.038 19.0326C161.999 18.9912 161.967 18.9413 161.946 18.8859C161.924 18.8305 161.913 18.7708 161.913 18.7105C161.913 18.6502 161.924 18.5905 161.946 18.5351C161.967 18.4797 161.999 18.4297 162.038 18.3883L163.469 16.7582C163.505 16.7156 163.548 16.6816 163.596 16.6583C163.644 16.6351 163.696 16.6231 163.748 16.6231C163.801 16.6231 163.853 16.6351 163.901 16.6583C163.949 16.6816 163.992 16.7156 164.027 16.7582C164.928 17.7494 166.141 18.3123 167.41 18.3277C169.068 18.3277 170.161 17.3199 170.161 16.0574C170.161 12.7848 162.322 14.6738 162.322 8.37776M187.718 4.02439V10.6384H181.08V4.02439C181.081 3.96761 181.071 3.91125 181.052 3.85852C181.033 3.80579 181.005 3.75773 180.97 3.71707C180.934 3.67642 180.891 3.64397 180.844 3.62158C180.797 3.59918 180.747 3.58729 180.696 3.58657H178.178C178.127 3.58729 178.076 3.59918 178.029 3.62158C177.982 3.64397 177.94 3.67642 177.904 3.71707C177.868 3.75773 177.84 3.80579 177.821 3.85852C177.802 3.91125 177.793 3.96761 177.793 4.02439V20.7343C177.793 20.9767 177.967 21.1735 178.178 21.1735H180.696C180.906 21.1735 181.08 20.9767 181.08 20.7343V14.0157H187.713V20.7343C187.713 20.9767 187.887 21.1735 188.098 21.1735H190.615C190.828 21.1735 191 20.9767 191 20.7343V4.02439C191.001 3.96761 190.991 3.91125 190.972 3.85852C190.953 3.80579 190.925 3.75773 190.889 3.71707C190.854 3.67642 190.811 3.64397 190.764 3.62158C190.717 3.59918 190.667 3.58729 190.615 3.58657H188.098C187.995 3.58946 187.898 3.63703 187.827 3.71898C187.756 3.80094 187.717 3.91066 187.718 4.02439ZM37.9548 5.81695C36.2085 2.22356 32.7915 -0.0137046 29.0756 6.31806e-05H0.960775C0.770908 0.00091869 0.585466 0.063774 0.427553 0.180797C0.269641 0.297821 0.146241 0.463838 0.0727299 0.658163C0.000292815 0.851242 -0.018573 1.06393 0.0185488 1.26898C0.0556706 1.47404 0.14709 1.66212 0.281098 1.80915L6.40563 8.55536C6.9464 9.15288 7.68313 9.48744 8.44962 9.48744H28.2694C29.6821 9.47092 30.8368 10.7128 30.8517 12.2589C30.8666 13.805 29.7342 15.0717 28.3215 15.0868H14.6573C14.4672 15.0869 14.2815 15.1491 14.1231 15.2656C13.9647 15.3822 13.8408 15.5479 13.7667 15.7421C13.6936 15.9354 13.6742 16.1486 13.7112 16.3542C13.7481 16.5598 13.8396 16.7485 13.9739 16.8959L20.1021 23.6476C20.6463 24.2448 21.3809 24.5793 22.1461 24.5783H28.3265C36.3672 24.5783 42.4471 15.1611 37.9548 5.81282" fill="#FF3008"/>
</svg>
