<svg width="115" height="21" viewBox="0 0 115 21" fill="none" xmlns="http://www.w3.org/2000/svg">
<path d="M29.926 11.598L28.4359 11.3715C27.0155 11.1621 26.1935 10.7019 26.1935 9.86564C26.1935 8.90543 27.2634 8.30993 28.8447 8.30993C29.9631 8.30993 30.8734 8.72878 31.7453 9.17327L31.9191 9.26159C32.12 9.36417 32.3365 9.41546 32.5602 9.41546C33.0773 9.41546 33.5546 9.1348 33.8039 8.68177L33.925 8.46237C34.1173 8.11191 34.1586 7.70874 34.0404 7.32693C33.9222 6.94655 33.6614 6.63883 33.3053 6.46075C32.0359 5.82536 30.6583 5.25408 28.8433 5.25408C25.0509 5.25408 22.6091 7.08474 22.6091 10.0323C22.6091 12.4514 24.3471 13.9686 27.6381 14.4174L29.1411 14.6125C30.7295 14.8348 31.5017 15.3049 31.5017 16.05C31.5017 16.7381 31.1299 17.6513 28.6695 17.6513C27.3132 17.6513 25.9356 17.3065 24.8173 16.5985C24.5936 16.4575 24.3372 16.382 24.0736 16.382C23.5821 16.382 23.1162 16.6427 22.857 17.0615L22.7729 17.1968C22.5649 17.5331 22.5022 17.9462 22.6005 18.3294C22.6988 18.7127 22.941 19.0289 23.2829 19.2198C25.2318 20.3154 27.4828 20.7043 28.6681 20.7043C32.6215 20.7043 35.0676 18.9719 35.0676 15.9232C35.0718 13.4871 33.3395 12.0881 29.926 11.598ZM75.8893 16.9233C75.6043 16.6042 75.194 16.4218 74.7666 16.4218C74.4774 16.4218 74.1954 16.5045 73.9489 16.6598C73.144 17.1698 72.2635 17.4405 71.3988 17.4405C69.0239 17.4405 67.3001 15.5642 67.3001 12.9799C67.3001 10.3956 69.0239 8.51936 71.3988 8.51936C72.3106 8.51936 73.1269 8.76724 73.8933 9.27726C74.4874 9.67189 75.3393 9.57074 75.828 9.04932L75.9548 8.91398C76.2896 8.55782 76.4477 8.07344 76.3907 7.58764C76.3352 7.11039 76.0745 6.68442 75.677 6.42086C74.5088 5.64585 73.0613 5.23698 71.49 5.23698C66.9311 5.23698 63.747 8.42106 63.747 12.9785C63.747 17.5373 66.9311 20.7214 71.49 20.7214C73.0685 20.7214 74.5244 20.304 75.7012 19.5133C76.0944 19.2498 76.3537 18.8281 76.4121 18.3551C76.4719 17.8793 76.3224 17.402 76.0032 17.0458L75.8893 16.9233ZM2.11559 0C0.928867 0 0 0.941688 0 2.14266C0 3.34933 0.908922 4.25825 2.11559 4.25825C3.31657 4.25825 4.25826 3.32939 4.25826 2.14266C4.25826 0.941688 3.31657 0 2.11559 0ZM2.75526 5.36378H1.50727C0.896101 5.36378 0.400326 5.85955 0.400326 6.47072V19.2384C0.400326 19.8495 0.896101 20.3453 1.50727 20.3453H2.75526C3.36643 20.3453 3.86221 19.8495 3.86221 19.2384V6.47072C3.86221 5.85955 3.36643 5.36378 2.75526 5.36378ZM43.7322 17.3735C42.3318 17.3678 40.7034 16.2708 40.7034 14.349V8.58916H43.7422C44.3534 8.58916 44.8492 8.09339 44.8492 7.48222V6.47072C44.8492 5.85955 44.3534 5.36378 43.7422 5.36378H40.7034V2.04009C40.7034 1.42892 40.2077 0.93314 39.5965 0.93314H38.2801C37.669 0.93314 37.1732 1.42892 37.1732 2.04009V14.1424C37.1732 17.6271 39.8173 20.7072 43.4787 20.7072H43.4801C43.8448 20.7072 44.1895 20.5647 44.4503 20.304C44.7095 20.0447 44.8534 19.6999 44.8534 19.3338V18.4804C44.8506 17.8664 44.3477 17.3764 43.7322 17.3735ZM13.4871 5.23841C9.05645 5.23841 6.58469 8.78291 6.58469 11.8146V19.2384C6.58469 19.8495 7.08047 20.3453 7.69164 20.3453H8.95388C9.56505 20.3453 10.0608 19.8495 10.0608 19.2384V12.3716C10.0608 10.0722 11.4541 8.54927 13.4857 8.54927C15.5172 8.54927 16.9105 10.0722 16.9105 12.3716V19.2384C16.9105 19.8495 17.4063 20.3453 18.0174 20.3453H19.2797C19.8909 20.3453 20.3866 19.8495 20.3866 19.2384V11.8146C20.3895 8.78149 17.9191 5.23841 13.4871 5.23841ZM104.631 5.39227C104.151 5.28685 102.947 5.23841 102.323 5.23841C102.268 5.23841 102.212 5.23983 102.158 5.23983C98.7277 5.23983 95.5593 8.0364 95.5593 11.8915C95.5593 11.8943 95.5579 11.8986 95.5579 11.9015V19.2384C95.5579 19.8495 96.0536 20.3453 96.6648 20.3453H97.927C98.5382 20.3453 99.034 19.8495 99.034 19.2384V12.0183C99.034 9.91978 100.533 8.5507 102.369 8.5507C102.705 8.5564 103.066 8.59344 103.419 8.66324C103.516 8.68176 103.613 8.69174 103.711 8.69174C104.412 8.69174 105.019 8.20736 105.183 7.52638C105.272 7.1517 105.339 6.8739 105.402 6.61888C105.465 6.36387 105.422 6.0761 105.277 5.84245C105.13 5.61166 104.901 5.45068 104.631 5.39227ZM113.89 8.58916C114.501 8.58916 114.997 8.09339 114.997 7.48222V6.47072C114.997 5.85955 114.501 5.36378 113.89 5.36378H110.851V2.04009C110.851 1.42892 110.356 0.93314 109.743 0.93314H108.427C107.815 0.93314 107.32 1.42892 107.32 2.04009V14.1424C107.32 17.6271 109.964 20.7072 113.625 20.7072H113.627C113.993 20.7072 114.336 20.5647 114.597 20.304C114.856 20.0447 115 19.6999 115 19.3338V18.4804C115 17.865 114.497 17.3749 113.882 17.3735C112.481 17.3678 110.853 16.2708 110.853 14.349V8.58916H113.89ZM89.7966 6.42656C89.7952 6.42513 89.7923 6.42371 89.7909 6.42228C88.6227 5.64728 87.1753 5.23841 85.6039 5.23841C85.5768 5.23841 85.5497 5.23983 85.5227 5.23983C85.4956 5.23983 85.4685 5.23841 85.4415 5.23841C83.8701 5.23841 82.4212 5.64728 81.2545 6.42228C81.253 6.42371 81.2502 6.42513 81.2488 6.42656C79.146 7.75005 77.8624 10.0879 77.8624 12.9813C77.8624 16.0115 79.2714 18.4334 81.5536 19.717C82.6178 20.3453 83.8815 20.72 85.2435 20.7214C87.7309 20.7228 89.2339 19.3139 89.7054 18.6984V19.2284C89.7054 19.8396 90.2012 20.3353 90.8124 20.3353H92.0746C92.6858 20.3353 93.1816 19.8396 93.1816 19.2284V12.9799C93.183 10.0865 91.8994 7.74862 89.7966 6.42656ZM86.9131 17.2082C86.5085 17.3422 86.0968 17.4191 85.6879 17.4362C85.658 17.4376 85.6281 17.4376 85.5982 17.439C85.5725 17.439 85.5483 17.4405 85.5227 17.4405C85.497 17.4405 85.4728 17.439 85.4472 17.439C85.4173 17.439 85.3873 17.4376 85.3574 17.4362C84.9486 17.4191 84.5354 17.3422 84.1322 17.2082C82.4996 16.6313 81.4154 15.03 81.4154 12.9799C81.4154 10.5609 82.927 8.76154 85.0682 8.54215C85.0796 8.54072 85.091 8.54073 85.1024 8.5393C85.1508 8.53503 85.1993 8.53075 85.2491 8.5279C85.2762 8.52648 85.3047 8.52506 85.3318 8.52363C85.3788 8.52221 85.4272 8.52078 85.4742 8.52078C85.4913 8.52078 85.507 8.51936 85.5241 8.51936C85.5412 8.51936 85.5569 8.51936 85.574 8.52078C85.6224 8.52078 85.6694 8.52221 85.7164 8.52363C85.7449 8.52506 85.772 8.52648 85.7991 8.5279C85.8475 8.53075 85.8974 8.5336 85.9458 8.5393C85.9572 8.54073 85.9686 8.54072 85.98 8.54215C88.1212 8.76154 89.6328 10.5594 89.6328 12.9799C89.6299 15.0285 88.5458 16.6313 86.9131 17.2082ZM58.285 6.42656C58.2835 6.42513 58.2807 6.42371 58.2793 6.42228C57.1111 5.64728 55.6636 5.23841 54.0922 5.23841C54.0652 5.23841 54.0381 5.23983 54.011 5.23983C53.984 5.23983 53.9569 5.23841 53.9298 5.23841C52.3584 5.23841 50.9096 5.64728 49.7428 6.42228C49.7414 6.42371 49.7385 6.42513 49.7371 6.42656C47.6343 7.75005 46.3507 10.0879 46.3507 12.9813C46.3507 16.0115 47.7597 18.4334 50.042 19.717C51.1062 20.3453 52.3698 20.72 53.7318 20.7214C56.2192 20.7228 57.7222 19.3139 58.1938 18.6984V19.2284C58.1938 19.8396 58.6896 20.3353 59.3007 20.3353H60.563C61.1741 20.3353 61.6699 19.8396 61.6699 19.2284V12.9799C61.6713 10.0865 60.3877 7.74862 58.285 6.42656ZM55.4015 17.2082C54.9969 17.3422 54.5852 17.4191 54.1763 17.4362C54.1464 17.4376 54.1165 17.4376 54.0865 17.439C54.0609 17.439 54.0367 17.4405 54.011 17.4405C53.9854 17.4405 53.9612 17.439 53.9355 17.439C53.9056 17.439 53.8757 17.4376 53.8458 17.4362C53.4369 17.4191 53.0238 17.3422 52.6206 17.2082C50.9879 16.6313 49.9038 15.03 49.9038 12.9799C49.9038 10.5609 51.4153 8.76154 53.5566 8.54215C53.568 8.54072 53.5794 8.54073 53.5908 8.5393C53.6392 8.53503 53.6876 8.53075 53.7375 8.5279C53.7646 8.52648 53.7931 8.52506 53.8201 8.52363C53.8671 8.52221 53.9156 8.52078 53.9626 8.52078C53.9797 8.52078 53.9954 8.51936 54.0125 8.51936C54.0295 8.51936 54.0452 8.51936 54.0623 8.52078C54.1108 8.52078 54.1578 8.52221 54.2048 8.52363C54.2333 8.52506 54.2603 8.52648 54.2874 8.5279C54.3358 8.53075 54.3857 8.5336 54.4342 8.5393C54.4455 8.54073 54.4569 8.54072 54.4683 8.54215C56.6096 8.76154 58.1211 10.5594 58.1211 12.9799C58.1183 15.0285 57.0341 16.6313 55.4015 17.2082Z" fill="#43B02A"/>
</svg>
