<svg width="10" height="10" viewBox="0 0 10 10" fill="none" xmlns="http://www.w3.org/2000/svg">
<path d="M7.46533 5.96597C7.35742 6.07055 7.30784 6.2218 7.33242 6.37012L7.70282 8.42005C7.73407 8.59379 7.66074 8.76962 7.51533 8.87004C7.37283 8.9742 7.18326 8.9867 7.02785 8.90337L5.1825 7.9409C5.11833 7.90674 5.04708 7.8884 4.97417 7.88632H4.86126C4.82209 7.89215 4.78376 7.90465 4.74876 7.92382L2.90299 8.89087C2.81175 8.9367 2.70842 8.95295 2.60717 8.9367C2.36051 8.89003 2.19594 8.65504 2.23635 8.40714L2.60717 6.35721C2.63175 6.20763 2.58217 6.05555 2.47426 5.94931L0.96973 4.49103C0.843901 4.36895 0.800153 4.18562 0.857651 4.02021C0.913482 3.85521 1.05598 3.7348 1.22805 3.70772L3.29881 3.40731C3.45631 3.39106 3.59464 3.29524 3.66547 3.15357L4.57793 1.28281C4.5996 1.24114 4.62752 1.20281 4.66126 1.17031L4.69876 1.14115C4.71834 1.11948 4.74084 1.10156 4.76584 1.08698L4.81126 1.07031L4.88209 1.04115H5.0575C5.21416 1.0574 5.35207 1.15115 5.42415 1.29114L6.3487 3.15357C6.41537 3.28982 6.54495 3.3844 6.69452 3.40731L8.76528 3.70772C8.94028 3.73272 9.08652 3.85355 9.14444 4.02021C9.19902 4.18729 9.15194 4.37061 9.02361 4.49103L7.46533 5.96597Z" fill="#FFB651"/>
</svg>
