<svg width="72" height="47" viewBox="0 0 72 47" fill="none" xmlns="http://www.w3.org/2000/svg">
<rect width="1614" height="3490" transform="translate(-904.346 -325.139) scale(1.00094)" fill="#0D0D0D"/>
<path d="M2.07 47.0002H2.66124L2.66403 46.3615C3.86046 46.2751 4.54653 45.6169 4.54932 44.6826C4.54653 43.6926 3.72939 43.2408 2.87041 43.0372L2.68634 42.9898L2.6975 41.3973C3.14372 41.4754 3.43098 41.7431 3.4756 42.1447H4.47123C4.4545 41.2579 3.75728 40.6109 2.70308 40.5105L2.70587 39.8607H2.11462L2.11183 40.5105C1.066 40.6164 0.313004 41.2579 0.315793 42.181C0.315793 43.0009 0.89867 43.4723 1.83852 43.7149L2.08952 43.779L2.07837 45.4663C1.57916 45.3882 1.21939 45.1038 1.18314 44.599H0.165194C0.204238 45.6448 0.92377 46.2667 2.07279 46.3615L2.07 47.0002ZM2.66961 45.4663L2.68077 43.9352C3.18834 44.083 3.51185 44.2782 3.51464 44.6743C3.51185 45.087 3.17998 45.3826 2.66961 45.4663ZM2.0951 42.8392C1.71024 42.7165 1.35884 42.5129 1.36441 42.1169C1.3672 41.7571 1.63772 41.4782 2.10626 41.3973L2.0951 42.8392Z" fill="white"/>
<path d="M8.68337 37.6017C6.82597 37.5891 5.59189 38.865 5.59189 40.5384C5.59607 42.1531 6.74649 43.3203 8.2483 43.3203C9.17281 43.3203 9.97601 42.8726 10.3902 42.1364H10.4487C10.4445 43.9687 9.7794 45.0605 8.59551 45.0605C7.85507 45.0605 7.35725 44.6338 7.20247 43.9519H5.67555C5.85125 45.3701 6.97238 46.4034 8.59551 46.4034C10.6495 46.4034 11.9589 44.6882 11.9547 41.739C11.9505 38.6182 10.3274 37.61 8.68337 37.6017ZM8.68755 38.8567C9.6037 38.8567 10.2772 39.618 10.2772 40.4923C10.2814 41.3792 9.57441 42.1406 8.67081 42.1406C7.75885 42.1406 7.10207 41.421 7.09788 40.5049C7.09788 39.5846 7.77977 38.8567 8.68755 38.8567Z" fill="white"/>
<path d="M14.0227 46.3783C14.5163 46.3783 14.9388 45.9683 14.943 45.4579C14.9388 44.9559 14.5163 44.546 14.0227 44.546C13.5123 44.546 13.0982 44.9559 13.1023 45.4579C13.0982 45.9683 13.5123 46.3783 14.0227 46.3783Z" fill="white"/>
<path d="M19.4237 46.4034C21.2351 46.4034 22.4984 45.1735 22.4984 43.4709C22.4984 41.8226 21.3522 40.6346 19.796 40.6346C19.1016 40.6346 18.4866 40.9107 18.1687 41.2872H18.1185L18.3653 39.0156H22.0508V37.7188H17.081L16.6334 42.1364L18.0348 42.3665C18.3235 42.0485 18.8673 41.8352 19.3818 41.8394C20.3231 41.8435 21.0008 42.538 20.9966 43.5085C21.0008 44.4665 20.3398 45.1484 19.4237 45.1484C18.6498 45.1484 18.0264 44.6589 17.9721 43.9561H16.4661C16.5079 45.3785 17.7503 46.4034 19.4237 46.4034Z" fill="white"/>
<path d="M27.1255 46.4494C29.1921 46.4536 30.4262 44.8221 30.4262 42.0109C30.4262 39.2164 29.1837 37.6017 27.1255 37.6017C25.0673 37.6017 23.8291 39.2122 23.8249 42.0109C23.8249 44.8179 25.059 46.4494 27.1255 46.4494ZM27.1255 45.14C26.0588 45.14 25.3894 44.0691 25.3936 42.0109C25.3978 39.9694 26.063 38.8943 27.1255 38.8943C28.1923 38.8943 28.8574 39.9694 28.8616 42.0109C28.8616 44.0691 28.1964 45.14 27.1255 45.14Z" fill="white"/>
<path d="M3.73456 17.489L4.8886 19.8274L7.46912 20.2023L5.60184 22.0225L6.04264 24.5926L3.73456 23.3791L1.42647 24.5926L1.86728 22.0225L0 20.2023L2.58052 19.8274L3.73456 17.489Z" fill="#FDCE77"/>
<path d="M30.1821 17.489L31.3362 19.8274L33.9167 20.2023L32.0494 22.0225L32.4902 24.5926L30.1821 23.3791L27.8741 24.5926L28.3149 22.0225L26.4476 20.2023L29.0281 19.8274L30.1821 17.489Z" fill="#FDCE77"/>
<path d="M42.6166 17.489L43.7707 19.8274L46.3512 20.2023L44.4839 22.0225L44.9247 24.5926L42.6166 23.3791L40.3085 24.5926L40.7493 22.0225L38.8821 20.2023L41.4626 19.8274L42.6166 17.489Z" fill="#FDCE77"/>
<path d="M55.0521 17.489L56.2061 19.8274L58.7866 20.2023L56.9194 22.0225L57.3602 24.5926L55.0521 23.3791L52.744 24.5926L53.1848 22.0225L51.3175 20.2023L53.898 19.8274L55.0521 17.489Z" fill="#FDCE77"/>
<path fill-rule="evenodd" clip-rule="evenodd" d="M68.6406 19.8274L67.4866 17.489L66.3325 19.8274L63.752 20.2023L65.6193 22.0225L65.1785 24.5926L67.4866 23.3791L69.7946 24.5926L69.3538 22.0225L71.2211 20.2023L68.6406 19.8274ZM69.8147 20.6593L68.206 20.4255L67.4866 18.9678L66.7671 20.4255L65.1584 20.6593L66.3225 21.794L66.0477 23.3962L67.4866 22.6397L68.9254 23.3962L68.6506 21.794L69.8147 20.6593Z" fill="#FDCE77"/>
<path d="M2.20497 0.414149H0.652954V8.9816H2.20497V0.414149Z" fill="#D1D1D1"/>
<path d="M7.0862 2.55601H5.81865V1.01655H4.30429V2.55601H3.39232V3.72734H4.30429V7.2999C4.29592 8.50888 5.17442 9.10292 6.31228 9.06945C6.74317 9.0569 7.04018 8.97323 7.20333 8.91885L6.94815 7.73497C6.86448 7.75589 6.69297 7.79354 6.50472 7.79354C6.12403 7.79354 5.81865 7.65967 5.81865 7.0489V3.72734H7.0862V2.55601Z" fill="#D1D1D1"/>
<path d="M10.2606 9.11128C11.2688 9.11128 11.8712 8.63857 12.1473 8.09892H12.1975V8.9816H13.6533V4.68114C13.6533 2.98271 12.2686 2.47235 11.0429 2.47235C9.6917 2.47235 8.65423 3.07474 8.31957 4.24608L9.73353 4.44688C9.88413 4.00763 10.3108 3.63113 11.0513 3.63113C11.7541 3.63113 12.1389 3.99089 12.1389 4.62258V4.64767C12.1389 5.08274 11.683 5.10366 10.5493 5.22497C9.30265 5.35884 8.1104 5.73116 8.1104 7.17859C8.1104 8.44195 9.03492 9.11128 10.2606 9.11128ZM10.6539 7.99852C10.0222 7.99852 9.57038 7.70987 9.57038 7.15349C9.57038 6.57201 10.0766 6.32937 10.7543 6.23315C11.1517 6.17877 11.9465 6.07837 12.1431 5.91941V6.67659C12.1431 7.39194 11.5658 7.99852 10.6539 7.99852Z" fill="#D1D1D1"/>
<path d="M16.7493 0.414149H15.2349V8.9816H16.7493V0.414149Z" fill="#D1D1D1"/>
<path d="M18.3654 8.9816H19.8798V2.55601H18.3654V8.9816ZM19.1268 1.64405C19.6079 1.64405 20.0011 1.27591 20.0011 0.824115C20.0011 0.368133 19.6079 0 19.1268 0C18.6415 0 18.2483 0.368133 18.2483 0.824115C18.2483 1.27591 18.6415 1.64405 19.1268 1.64405Z" fill="#D1D1D1"/>
<path d="M23.345 9.11128C24.3532 9.11128 24.9556 8.63857 25.2317 8.09892H25.2819V8.9816H26.7377V4.68114C26.7377 2.98271 25.353 2.47235 24.1273 2.47235C22.7761 2.47235 21.7386 3.07474 21.4039 4.24608L22.8179 4.44688C22.9685 4.00763 23.3952 3.63113 24.1356 3.63113C24.8384 3.63113 25.2233 3.99089 25.2233 4.62258V4.64767C25.2233 5.08274 24.7673 5.10366 23.6336 5.22497C22.387 5.35884 21.1948 5.73116 21.1948 7.17859C21.1948 8.44195 22.1193 9.11128 23.345 9.11128ZM23.7382 7.99852C23.1065 7.99852 22.6547 7.70987 22.6547 7.15349C22.6547 6.57201 23.1609 6.32937 23.8386 6.23315C24.236 6.17877 25.0309 6.07837 25.2275 5.91941V6.67659C25.2275 7.39194 24.6502 7.99852 23.7382 7.99852Z" fill="#D1D1D1"/>
<path d="M29.8337 5.21661C29.8337 4.28791 30.3942 3.75244 31.1932 3.75244C31.9755 3.75244 32.4441 4.26699 32.4441 5.12457V8.9816H33.9584V4.89031C33.9626 3.35084 33.0841 2.47235 31.758 2.47235C30.7958 2.47235 30.1349 2.93251 29.842 3.64786H29.7667V2.55601H28.3193V8.9816H29.8337V5.21661Z" fill="#D1D1D1"/>
<path d="M38.6047 8.9816H40.1567V6.08674H41.7965C43.7753 6.08674 44.8378 4.89867 44.8378 3.25044C44.8378 1.61476 43.7878 0.414149 41.8175 0.414149H38.6047V8.9816ZM40.1567 4.81082V1.71098H41.579C42.742 1.71098 43.2565 2.33848 43.2565 3.25044C43.2565 4.16241 42.742 4.81082 41.5874 4.81082H40.1567Z" fill="#D1D1D1"/>
<path d="M46.1779 8.9816H47.6922V2.55601H46.1779V8.9816ZM46.9392 1.64405C47.4203 1.64405 47.8136 1.27591 47.8136 0.824115C47.8136 0.368133 47.4203 0 46.9392 0C46.454 0 46.0607 0.368133 46.0607 0.824115C46.0607 1.27591 46.454 1.64405 46.9392 1.64405Z" fill="#D1D1D1"/>
<path d="M49.2247 8.9816H54.4999V7.7266H51.2369V7.67222L54.3911 3.58929V2.55601H49.3335V3.81101H52.5379V3.86539L49.2247 8.01944V8.9816Z" fill="#D1D1D1"/>
<path d="M55.8985 8.9816H61.1737V7.7266H57.9107V7.67222L61.0649 3.58929V2.55601H56.0073V3.81101H59.2117V3.86539L55.8985 8.01944V8.9816Z" fill="#D1D1D1"/>
<path d="M64.505 9.11128C65.5132 9.11128 66.1156 8.63857 66.3917 8.09892H66.4419V8.9816H67.8977V4.68114C67.8977 2.98271 66.513 2.47235 65.2873 2.47235C63.9361 2.47235 62.8986 3.07474 62.5639 4.24608L63.9779 4.44688C64.1285 4.00763 64.5552 3.63113 65.2956 3.63113C65.9984 3.63113 66.3833 3.99089 66.3833 4.62258V4.64767C66.3833 5.08274 65.9273 5.10366 64.7936 5.22497C63.547 5.35884 62.3547 5.73116 62.3547 7.17859C62.3547 8.44195 63.2793 9.11128 64.505 9.11128ZM64.8982 7.99852C64.2665 7.99852 63.8147 7.70987 63.8147 7.15349C63.8147 6.57201 64.3209 6.32937 64.9986 6.23315C65.396 6.17877 66.1909 6.07837 66.3875 5.91941V6.67659C66.3875 7.39194 65.8102 7.99852 64.8982 7.99852Z" fill="#D1D1D1"/>
</svg>
