<svg width="111" height="11" viewBox="0 0 111 11" fill="none" xmlns="http://www.w3.org/2000/svg">
<rect width="1614" height="3490" transform="translate(-1385.58 -331.349) scale(1.0048)" fill="#0D0D0D"/>
<path d="M3.71707 7.42377C3.03873 7.42377 2.41575 7.26456 1.84815 6.94615C1.28056 6.62774 0.830631 6.1882 0.498379 5.62753C0.166126 5.05993 0 4.41965 0 3.70669C0 3.00066 0.166126 2.3673 0.498379 1.80662C0.830631 1.23902 1.28056 0.796021 1.84815 0.477612C2.41575 0.159204 3.03873 0 3.71707 0C4.40235 0 5.02532 0.159204 5.58599 0.477612C6.15359 0.796021 6.60006 1.23902 6.92539 1.80662C7.25764 2.3673 7.42377 3.00066 7.42377 3.70669C7.42377 4.41965 7.25764 5.05993 6.92539 5.62753C6.60006 6.1882 6.15359 6.62774 5.58599 6.94615C5.0184 7.26456 4.39542 7.42377 3.71707 7.42377ZM3.71707 6.1259C4.15316 6.1259 4.53732 6.029 4.86958 5.83518C5.20183 5.63445 5.4614 5.35065 5.64829 4.98379C5.83518 4.61692 5.92863 4.19123 5.92863 3.70669C5.92863 3.22216 5.83518 2.79992 5.64829 2.43998C5.4614 2.07312 5.20183 1.79278 4.86958 1.59896C4.53732 1.40515 4.15316 1.30824 3.71707 1.30824C3.28099 1.30824 2.89337 1.40515 2.55419 1.59896C2.22194 1.79278 1.96237 2.07312 1.77547 2.43998C1.58858 2.79992 1.49514 3.22216 1.49514 3.70669C1.49514 4.19123 1.58858 4.61692 1.77547 4.98379C1.96237 5.35065 2.22194 5.63445 2.55419 5.83518C2.89337 6.029 3.28099 6.1259 3.71707 6.1259Z" fill="white"/>
<path d="M13.9355 1.59896V7.35109H12.4715V6.62428C12.2846 6.87347 12.0389 7.07075 11.7343 7.21611C11.4366 7.35455 11.1113 7.42377 10.7583 7.42377C10.3084 7.42377 9.91036 7.33032 9.56426 7.14343C9.21817 6.94961 8.94475 6.66928 8.74401 6.30241C8.5502 5.92863 8.45329 5.48563 8.45329 4.9734V1.59896H9.9069V4.76575C9.9069 5.22259 10.0211 5.57561 10.2495 5.8248C10.478 6.06707 10.7894 6.1882 11.184 6.1882C11.5855 6.1882 11.9004 6.06707 12.1288 5.8248C12.3573 5.57561 12.4715 5.22259 12.4715 4.76575V1.59896H13.9355Z" fill="white"/>
<path d="M16.8233 2.49189C17.0102 2.18733 17.2524 1.94852 17.5501 1.77547C17.8546 1.60243 18.2007 1.5159 18.5884 1.5159V3.04219H18.2042C17.7474 3.04219 17.4013 3.14948 17.1659 3.36406C16.9375 3.57864 16.8233 3.95242 16.8233 4.48541V7.35109H15.3697V1.59896H16.8233V2.49189Z" fill="white"/>
<path d="M28.0532 0.103829V7.35109H26.5996V4.26737H23.4951V7.35109H22.0415V0.103829H23.4951V3.08372H26.5996V0.103829H28.0532Z" fill="white"/>
<path d="M29.1101 4.45426C29.1101 3.87282 29.2243 3.35713 29.4528 2.90721C29.6881 2.45728 30.0031 2.11119 30.3976 1.86892C30.7991 1.62665 31.2455 1.50552 31.737 1.50552C32.1662 1.50552 32.5399 1.59204 32.8584 1.76509C33.1837 1.93814 33.4433 2.15618 33.6371 2.41921V1.59896H35.1011V7.35109H33.6371V6.51007C33.4502 6.78003 33.1906 7.00499 32.8584 7.18496C32.533 7.35801 32.1558 7.44453 31.7266 7.44453C31.2421 7.44453 30.7991 7.31994 30.3976 7.07075C30.0031 6.82156 29.6881 6.472 29.4528 6.02208C29.2243 5.56523 29.1101 5.04262 29.1101 4.45426ZM33.6371 4.47503C33.6371 4.12201 33.5679 3.8209 33.4294 3.57171C33.291 3.3156 33.1041 3.12179 32.8687 2.99027C32.6334 2.85183 32.3807 2.78261 32.1108 2.78261C31.8408 2.78261 31.5916 2.84837 31.3632 2.97989C31.1348 3.11141 30.9479 3.30522 30.8025 3.56133C30.6641 3.81052 30.5949 4.10816 30.5949 4.45426C30.5949 4.80036 30.6641 5.10492 30.8025 5.36795C30.9479 5.62407 31.1348 5.82134 31.3632 5.95978C31.5986 6.09822 31.8478 6.16744 32.1108 6.16744C32.3807 6.16744 32.6334 6.10168 32.8687 5.97016C33.1041 5.83172 33.291 5.63791 33.4294 5.38872C33.5679 5.13261 33.6371 4.82804 33.6371 4.47503Z" fill="white"/>
<path d="M37.9744 2.4296C38.1613 2.16656 38.4174 1.94852 38.7427 1.77547C39.0749 1.5955 39.4522 1.50552 39.8744 1.50552C40.3659 1.50552 40.8089 1.62665 41.2034 1.86892C41.6049 2.11119 41.9199 2.45728 42.1483 2.90721C42.3836 3.35021 42.5013 3.8659 42.5013 4.45426C42.5013 5.04262 42.3836 5.56523 42.1483 6.02208C41.9199 6.472 41.6049 6.82156 41.2034 7.07075C40.8089 7.31994 40.3659 7.44453 39.8744 7.44453C39.4522 7.44453 39.0784 7.35801 38.7531 7.18496C38.4347 7.01191 38.1751 6.79387 37.9744 6.53084V10.0922H36.5208V1.59896H37.9744V2.4296ZM41.0165 4.45426C41.0165 4.10816 40.9439 3.81052 40.7985 3.56133C40.6601 3.30522 40.4732 3.11141 40.2378 2.97989C40.0094 2.84837 39.7602 2.78261 39.4903 2.78261C39.2272 2.78261 38.978 2.85183 38.7427 2.99027C38.5143 3.12179 38.3274 3.3156 38.182 3.57171C38.0436 3.82783 37.9744 4.12893 37.9744 4.47503C37.9744 4.82112 38.0436 5.12223 38.182 5.37834C38.3274 5.63445 38.5143 5.83172 38.7427 5.97016C38.978 6.10168 39.2272 6.16744 39.4903 6.16744C39.7602 6.16744 40.0094 6.09822 40.2378 5.95978C40.4732 5.82134 40.6601 5.62407 40.7985 5.36795C40.9439 5.11184 41.0165 4.80728 41.0165 4.45426Z" fill="white"/>
<path d="M45.0112 2.4296C45.1981 2.16656 45.4542 1.94852 45.7795 1.77547C46.1118 1.5955 46.489 1.50552 46.9113 1.50552C47.4027 1.50552 47.8457 1.62665 48.2403 1.86892C48.6418 2.11119 48.9567 2.45728 49.1851 2.90721C49.4205 3.35021 49.5381 3.8659 49.5381 4.45426C49.5381 5.04262 49.4205 5.56523 49.1851 6.02208C48.9567 6.472 48.6418 6.82156 48.2403 7.07075C47.8457 7.31994 47.4027 7.44453 46.9113 7.44453C46.489 7.44453 46.1152 7.35801 45.7899 7.18496C45.4715 7.01191 45.2119 6.79387 45.0112 6.53084V10.0922H43.5576V1.59896H45.0112V2.4296ZM48.0534 4.45426C48.0534 4.10816 47.9807 3.81052 47.8354 3.56133C47.6969 3.30522 47.51 3.11141 47.2747 2.97989C47.0462 2.84837 46.7971 2.78261 46.5271 2.78261C46.2641 2.78261 46.0149 2.85183 45.7795 2.99027C45.5511 3.12179 45.3642 3.3156 45.2189 3.57171C45.0804 3.82783 45.0112 4.12893 45.0112 4.47503C45.0112 4.82112 45.0804 5.12223 45.2189 5.37834C45.3642 5.63445 45.5511 5.83172 45.7795 5.97016C46.0149 6.10168 46.2641 6.16744 46.5271 6.16744C46.7971 6.16744 47.0462 6.09822 47.2747 5.95978C47.51 5.82134 47.6969 5.62407 47.8354 5.36795C47.9807 5.11184 48.0534 4.80728 48.0534 4.45426Z" fill="white"/>
<path d="M56.0974 1.59896L52.536 10.0714H50.989L52.2349 7.20573L49.9299 1.59896H51.56L53.0448 5.61714L54.5503 1.59896H56.0974Z" fill="white"/>
<path d="M59.002 3.71707C59.002 3.00412 59.1612 2.3673 59.4796 1.80662C59.8049 1.23902 60.2445 0.799482 60.7982 0.487996C61.3589 0.169587 61.9853 0.0103828 62.6775 0.0103828C63.4874 0.0103828 64.1969 0.218041 64.806 0.633356C65.4151 1.04867 65.8408 1.62319 66.0831 2.35692H64.4115C64.2453 2.01082 64.01 1.75125 63.7054 1.5782C63.4078 1.40515 63.0617 1.31863 62.6671 1.31863C62.2449 1.31863 61.8677 1.41899 61.5354 1.61973C61.2101 1.81354 60.954 2.09042 60.7671 2.45036C60.5871 2.8103 60.4971 3.23254 60.4971 3.71707C60.4971 4.19469 60.5871 4.61692 60.7671 4.98379C60.954 5.34373 61.2101 5.62407 61.5354 5.8248C61.8677 6.01862 62.2449 6.11552 62.6671 6.11552C63.0617 6.11552 63.4078 6.029 63.7054 5.85595C64.01 5.67598 64.2453 5.41295 64.4115 5.06685H66.0831C65.8408 5.8075 65.4151 6.38548 64.806 6.80079C64.2038 7.20919 63.4943 7.41338 62.6775 7.41338C61.9853 7.41338 61.3589 7.25764 60.7982 6.94615C60.2445 6.62774 59.8049 6.1882 59.4796 5.62753C59.1612 5.06685 59.002 4.43003 59.002 3.71707Z" fill="white"/>
<path d="M72.7549 1.59896V7.35109H71.2909V6.62428C71.1041 6.87347 70.8583 7.07075 70.5538 7.21611C70.2561 7.35455 69.9308 7.42377 69.5778 7.42377C69.1278 7.42377 68.7298 7.33032 68.3837 7.14343C68.0376 6.94961 67.7642 6.66928 67.5635 6.30241C67.3697 5.92863 67.2728 5.48563 67.2728 4.9734V1.59896H68.7264V4.76575C68.7264 5.22259 68.8406 5.57561 69.069 5.8248C69.2974 6.06707 69.6089 6.1882 70.0035 6.1882C70.4049 6.1882 70.7199 6.06707 70.9483 5.8248C71.1767 5.57561 71.2909 5.22259 71.2909 4.76575V1.59896H72.7549Z" fill="white"/>
<path d="M76.3903 7.44453C75.9196 7.44453 75.4974 7.36147 75.1236 7.19534C74.7498 7.02229 74.4522 6.79041 74.2307 6.49969C74.0161 6.20897 73.8984 5.8871 73.8777 5.53408H75.3416C75.3693 5.75558 75.4766 5.93901 75.6635 6.08437C75.8573 6.22973 76.0961 6.30241 76.3799 6.30241C76.6568 6.30241 76.8714 6.24704 77.0237 6.13629C77.1829 6.02554 77.2625 5.88364 77.2625 5.71059C77.2625 5.5237 77.1656 5.38526 76.9718 5.29527C76.7849 5.19837 76.4838 5.09454 76.0685 4.98379C75.6393 4.87996 75.2863 4.77267 75.0094 4.66192C74.7394 4.55117 74.5041 4.38158 74.3034 4.15316C74.1095 3.92473 74.0126 3.61671 74.0126 3.22908C74.0126 2.91067 74.1026 2.61995 74.2826 2.35692C74.4695 2.09388 74.7325 1.88622 75.0717 1.73394C75.4178 1.58166 75.8227 1.50552 76.2865 1.50552C76.9718 1.50552 77.5186 1.67857 77.927 2.02466C78.3354 2.36384 78.5603 2.82415 78.6019 3.40559H77.2106C77.1898 3.17716 77.0929 2.99719 76.9198 2.86568C76.7537 2.72724 76.5288 2.65802 76.245 2.65802C75.9819 2.65802 75.7777 2.70647 75.6324 2.80338C75.4939 2.90029 75.4247 3.03526 75.4247 3.20831C75.4247 3.40213 75.5216 3.55095 75.7154 3.65478C75.9092 3.75168 76.2104 3.85205 76.6187 3.95588C77.0341 4.05971 77.3767 4.167 77.6466 4.27775C77.9166 4.3885 78.1485 4.56155 78.3423 4.7969C78.543 5.02532 78.6469 5.32988 78.6538 5.71059C78.6538 6.04284 78.5604 6.34048 78.3735 6.60352C78.1935 6.86655 77.9305 7.07421 77.5844 7.22649C77.2452 7.37185 76.8472 7.44453 76.3903 7.44453Z" fill="white"/>
<path d="M81.5394 2.793V5.57561C81.5394 5.76943 81.5844 5.91133 81.6744 6.00131C81.7713 6.08437 81.9305 6.1259 82.152 6.1259H82.8269V7.35109H81.9132C80.688 7.35109 80.0754 6.7558 80.0754 5.56523V2.793H79.3902V1.59896H80.0754V0.176509H81.5394V1.59896H82.8269V2.793H81.5394Z" fill="white"/>
<path d="M86.4266 7.44453C85.8728 7.44453 85.3745 7.3234 84.9315 7.08113C84.4885 6.83194 84.1389 6.48238 83.8828 6.03246C83.6336 5.58253 83.509 5.06339 83.509 4.47503C83.509 3.88666 83.6371 3.36752 83.8932 2.91759C84.1562 2.46767 84.5127 2.12157 84.9626 1.8793C85.4125 1.63011 85.9144 1.50552 86.4681 1.50552C87.0219 1.50552 87.5237 1.63011 87.9736 1.8793C88.4236 2.12157 88.7766 2.46767 89.0327 2.91759C89.2957 3.36752 89.4273 3.88666 89.4273 4.47503C89.4273 5.06339 89.2923 5.58253 89.0223 6.03246C88.7593 6.48238 88.3994 6.83194 87.9425 7.08113C87.4926 7.3234 86.9873 7.44453 86.4266 7.44453ZM86.4266 6.17782C86.6896 6.17782 86.9354 6.11552 87.1638 5.99093C87.3991 5.85941 87.586 5.6656 87.7245 5.40949C87.8629 5.15337 87.9321 4.84189 87.9321 4.47503C87.9321 3.92819 87.7868 3.50942 87.496 3.2187C87.2122 2.92105 86.8627 2.77223 86.4474 2.77223C86.0321 2.77223 85.6825 2.92105 85.3987 3.2187C85.1218 3.50942 84.9834 3.92819 84.9834 4.47503C84.9834 5.02186 85.1184 5.4441 85.3883 5.74174C85.6652 6.03246 86.0113 6.17782 86.4266 6.17782Z" fill="white"/>
<path d="M97.637 1.5159C98.343 1.5159 98.9106 1.73394 99.3398 2.17002C99.7758 2.59918 99.9939 3.20139 99.9939 3.97665V7.35109H98.5403V4.17392C98.5403 3.724 98.4261 3.38136 98.1976 3.14602C97.9692 2.90375 97.6577 2.78261 97.2632 2.78261C96.8686 2.78261 96.5537 2.90375 96.3183 3.14602C96.0899 3.38136 95.9757 3.724 95.9757 4.17392V7.35109H94.5221V4.17392C94.5221 3.724 94.4079 3.38136 94.1795 3.14602C93.951 2.90375 93.6395 2.78261 93.245 2.78261C92.8435 2.78261 92.5251 2.90375 92.2898 3.14602C92.0613 3.38136 91.9471 3.724 91.9471 4.17392V7.35109H90.4935V1.59896H91.9471V2.29462C92.134 2.05235 92.3728 1.862 92.6636 1.72356C92.9612 1.58512 93.2865 1.5159 93.6395 1.5159C94.0895 1.5159 94.4909 1.61281 94.844 1.80662C95.197 1.99351 95.4704 2.26347 95.6642 2.61649C95.8511 2.28424 96.1211 2.01774 96.4741 1.81701C96.834 1.61627 97.2216 1.5159 97.637 1.5159Z" fill="white"/>
<path d="M106.72 4.35043C106.72 4.55809 106.707 4.74498 106.679 4.91111H102.474C102.508 5.32642 102.654 5.65175 102.91 5.8871C103.166 6.12244 103.481 6.24012 103.855 6.24012C104.395 6.24012 104.779 6.00823 105.007 5.54446H106.575C106.409 6.09822 106.091 6.55506 105.62 6.915C105.149 7.26802 104.571 7.44453 103.886 7.44453C103.332 7.44453 102.834 7.3234 102.391 7.08113C101.955 6.83194 101.612 6.48238 101.363 6.03246C101.121 5.58253 100.999 5.06339 100.999 4.47503C100.999 3.87974 101.121 3.35713 101.363 2.90721C101.605 2.45728 101.944 2.11119 102.38 1.86892C102.816 1.62665 103.318 1.50552 103.886 1.50552C104.433 1.50552 104.921 1.62319 105.35 1.85854C105.786 2.09388 106.122 2.4296 106.357 2.86568C106.599 3.29484 106.72 3.78975 106.72 4.35043ZM105.215 3.93512C105.208 3.56133 105.073 3.26369 104.81 3.04219C104.547 2.81376 104.225 2.69955 103.844 2.69955C103.484 2.69955 103.18 2.8103 102.931 3.0318C102.688 3.24638 102.54 3.54749 102.484 3.93512H105.215Z" fill="white"/>
<path d="M109.235 2.49189C109.422 2.18733 109.664 1.94852 109.962 1.77547C110.266 1.60243 110.613 1.5159 111 1.5159V3.04219H110.616C110.159 3.04219 109.813 3.14948 109.578 3.36406C109.349 3.57864 109.235 3.95242 109.235 4.48541V7.35109H107.781V1.59896H109.235V2.49189Z" fill="white"/>
</svg>
