<svg width="56" height="55" viewBox="0 0 56 55" fill="none" xmlns="http://www.w3.org/2000/svg">
<g clip-path="url(#clip0_407_2398)">
<path d="M47.6694 0.804196C47.3608 0.626165 46.993 0.575434 46.6464 0.663105C46.2999 0.750777 46.0028 0.969711 45.8202 1.272L36.1488 17.3634C36.0992 17.4469 36.0592 17.5355 36.0294 17.6276C34.9473 18.0216 33.9373 18.5851 33.0386 19.2963C30.1082 14.4067 24.7389 11.3279 18.8731 11.3279C9.82201 11.3279 2.45955 18.5486 2.43432 27.4321H0.300781L0.49155 28.9243C1.6017 37.5974 7.04786 45.1729 14.8786 49.1619V54.2829H35.0842C37.6454 54.2829 39.7291 52.2346 39.7291 49.7185V49.1625C47.5623 45.1717 53.006 37.5962 54.1186 28.9243L54.3094 27.4308H50.4565C50.4386 22.8967 47.478 19.0418 43.3599 17.5865L55.4263 6.18211C55.9629 5.67502 55.9802 4.83491 55.462 4.30788C55.3392 4.1824 55.1925 4.08191 55.0302 4.01215C54.8678 3.94238 54.6931 3.90471 54.5159 3.90129C54.3388 3.89786 54.1627 3.92875 53.9977 3.99219C53.8327 4.05563 53.682 4.15037 53.5543 4.27101L40.1131 16.9766C39.9925 16.9718 39.8725 16.9585 39.75 16.9585C39.6725 16.9585 39.598 16.9694 39.5217 16.9706L48.1457 2.6204C48.2359 2.47044 48.2951 2.3045 48.3199 2.13206C48.3448 1.95962 48.3348 1.78406 48.2906 1.6154C48.2464 1.44675 48.1687 1.2883 48.0621 1.14911C47.9556 1.00993 47.8221 0.892722 47.6694 0.804196ZM18.8725 13.9806C24.0399 13.9806 28.75 16.8376 31.0928 21.3138C30.2387 22.4675 29.6331 23.7802 29.3131 25.1716C28.2392 20.4767 23.9697 16.9573 18.8725 16.9573C12.9851 16.9573 8.19555 21.6522 8.17032 27.4314H5.13524C5.15986 20.0113 11.3112 13.9806 18.8725 13.9806ZM18.8725 22.5939C16.1463 22.5939 13.9279 24.7606 13.9026 27.4314H10.8719C10.8971 23.1149 14.4743 19.6106 18.8725 19.6106C23.2719 19.6106 26.8528 23.1149 26.8755 27.4314H23.8411C23.8171 24.7606 21.5986 22.5939 18.8725 22.5939ZM21.1383 27.4321H16.6066C16.6187 26.849 16.8627 26.2938 17.2865 25.8853C17.7102 25.4768 18.28 25.2475 18.8737 25.2466C19.4672 25.2477 20.0366 25.4771 20.4599 25.8857C20.8832 26.2942 21.1267 26.8493 21.1383 27.4321ZM51.1974 30.0847C49.6965 37.7932 44.374 44.3648 36.9974 47.5125H32.6743V50.1658H36.9685C36.8674 50.5821 36.6266 50.9529 36.2849 51.2185C35.9433 51.4842 35.5205 51.6292 35.0848 51.6302H17.5802V50.1658H22.6442V47.5125H17.6128C10.2362 44.3666 4.91309 37.7932 3.41094 30.0847H51.1974ZM37.4848 27.4321C37.4967 26.8493 37.7404 26.2943 38.1638 25.8858C38.5872 25.4773 39.1565 25.2479 39.75 25.2466C40.344 25.2471 40.9142 25.4762 41.3382 25.8847C41.7623 26.2933 42.0064 26.8488 42.0183 27.4321H37.4848ZM39.75 19.6112C44.1512 19.6112 47.7334 23.1155 47.7568 27.4321H44.7205C44.6959 24.7612 42.4768 22.5945 39.75 22.5945C37.0239 22.5945 34.8072 24.7612 34.7826 27.4321H31.7494C31.774 23.1155 35.3512 19.6112 39.75 19.6112Z" fill="#AD343E"/>
<path d="M39.1741 42.9142C39.3901 42.9142 39.6086 42.864 39.8098 42.757C41.4591 41.8899 42.9065 40.6949 44.0598 39.2482C45.2131 37.8015 46.0469 36.1347 46.5082 34.3541C46.5524 34.185 46.5622 34.0091 46.537 33.8363C46.5118 33.6635 46.4522 33.4973 46.3614 33.3472C46.2707 33.1972 46.1507 33.0662 46.0083 32.9617C45.8659 32.8573 45.7039 32.7815 45.5316 32.7387C45.3593 32.6959 45.1801 32.687 45.0043 32.7123C44.8285 32.7377 44.6595 32.7969 44.507 32.8866C44.3545 32.9762 44.2215 33.0946 44.1157 33.2348C44.0099 33.375 43.9334 33.5344 43.8904 33.7038C43.5221 35.1269 42.856 36.459 41.9345 37.6154C41.0131 38.7717 39.8565 39.7268 38.5384 40.4198C38.2726 40.5588 38.0618 40.781 37.9395 41.0513C37.8172 41.3215 37.7905 41.6241 37.8636 41.911C37.9367 42.1979 38.1054 42.4525 38.3429 42.6343C38.5804 42.8161 38.873 42.9146 39.1741 42.9142Z" fill="#474747"/>
<path d="M35.9059 45.0066C36.7903 45.0066 37.5072 44.3025 37.5072 43.434C37.5072 42.5654 36.7903 41.8613 35.9059 41.8613C35.0216 41.8613 34.3047 42.5654 34.3047 43.434C34.3047 44.3025 35.0216 45.0066 35.9059 45.0066Z" fill="#474747"/>
</g>
<defs>
<clipPath id="clip0_407_2398">
<rect width="56" height="55" fill="white"/>
</clipPath>
</defs>
</svg>
