<svg width="23" height="17" viewBox="0 0 23 17" fill="none" xmlns="http://www.w3.org/2000/svg">
<path d="M20.6355 4.1481C20.6502 4.33034 20.6502 4.51259 20.6502 4.69483C20.6628 6.26934 20.3245 7.83038 19.655 9.28722C18.9854 10.7441 17.998 12.0676 16.7501 13.181C15.5022 14.2944 14.0187 15.1753 12.3858 15.7727C10.7529 16.3701 9.00327 16.6719 7.23851 16.6606C4.67218 16.6668 2.15854 16.0112 0 14.7727C0.378099 14.81 0.758317 14.8275 1.13871 14.8251C3.26054 14.8298 5.3223 14.1967 6.99136 13.0278C6.00732 13.0116 5.05357 12.7214 4.26342 12.1979C3.47328 11.6743 2.88624 10.9436 2.58437 10.1078C2.87892 10.1496 3.17657 10.1714 3.4748 10.1733C3.89369 10.1724 4.31078 10.1243 4.7162 10.0303C3.64867 9.83768 2.68883 9.32119 1.99982 8.56862C1.31082 7.81604 0.93516 6.87382 0.936695 5.90209V5.85275C1.5899 6.17789 2.31996 6.36074 3.06739 6.3864C2.067 5.79106 1.35896 4.87756 1.08778 3.83232C0.816605 2.78708 1.00273 1.68892 1.60818 0.76195C2.79214 2.06214 4.26917 3.12581 5.94349 3.884C7.6178 4.64218 9.45203 5.07794 11.3272 5.16303C11.2529 4.84611 11.2151 4.52324 11.2144 4.19945C11.2167 3.35717 11.5021 2.53489 12.0338 1.83889C12.5655 1.14289 13.319 0.605188 14.1968 0.295293C15.0746 -0.0146012 16.0365 -0.0824348 16.958 0.100557C17.8795 0.283549 18.7182 0.708954 19.3659 1.32178C20.4216 1.14028 21.4339 0.79652 22.3577 0.305829C22.0058 1.27697 21.2691 2.10033 20.2857 2.62166C21.2217 2.52644 22.1365 2.30686 22.9998 1.97021C22.3544 2.80866 21.5551 3.54394 20.6355 4.14507V4.1481Z" fill="#FDCE77"/>
</svg>
