<svg width="74" height="9" viewBox="0 0 74 9" fill="none" xmlns="http://www.w3.org/2000/svg">
<rect width="1614" height="3490" transform="translate(-1405.89 -350.45) scale(1.00912)" fill="#0D0D0D"/>
<path d="M0 6.19399V5.33372L2.55737 1.67363H3.83214V5.23987H4.52036V6.19399H3.83214V7.30453H2.73724V6.19399H0ZM2.80763 2.84673L1.20439 5.23987H2.80763V2.84673Z" fill="white"/>
<path d="M5.82746 7.35928C5.62933 7.35928 5.4651 7.29932 5.33475 7.1794C5.20962 7.05427 5.14706 6.90046 5.14706 6.71798C5.14706 6.5355 5.20962 6.3843 5.33475 6.26438C5.4651 6.13925 5.62933 6.07668 5.82746 6.07668C6.02037 6.07668 6.17939 6.13925 6.30452 6.26438C6.42965 6.3843 6.49222 6.5355 6.49222 6.71798C6.49222 6.90046 6.42965 7.05427 6.30452 7.1794C6.17939 7.29932 6.02037 7.35928 5.82746 7.35928Z" fill="white"/>
<path d="M8.51595 5.70129C8.55766 5.9307 8.6515 6.10796 8.79749 6.2331C8.94869 6.35301 9.14942 6.41297 9.39968 6.41297C9.72294 6.41297 9.95756 6.28002 10.1035 6.01412C10.2495 5.743 10.3225 5.2894 10.3225 4.65331C10.2026 4.82016 10.0332 4.9505 9.81418 5.04435C9.60042 5.1382 9.3684 5.18512 9.11814 5.18512C8.78446 5.18512 8.48206 5.11734 8.21094 4.98178C7.94503 4.84101 7.73388 4.63507 7.57746 4.36395C7.42105 4.08762 7.34284 3.75393 7.34284 3.3629C7.34284 2.78417 7.5149 2.32535 7.85901 1.98646C8.20312 1.64235 8.67236 1.47029 9.26673 1.47029C10.0071 1.47029 10.5285 1.70752 10.8309 2.18197C11.1385 2.65643 11.2923 3.37072 11.2923 4.32485C11.2923 5.00264 11.2323 5.55791 11.1124 5.99065C10.9977 6.4234 10.797 6.75187 10.5102 6.97606C10.2287 7.20026 9.84286 7.31235 9.35276 7.31235C8.96694 7.31235 8.63847 7.23936 8.36735 7.09337C8.09623 6.94217 7.88768 6.74665 7.7417 6.50682C7.60092 6.26177 7.52011 5.99326 7.49925 5.70129H8.51595ZM9.34494 4.29356C9.61606 4.29356 9.82982 4.21014 9.98624 4.0433C10.1426 3.87646 10.2209 3.65227 10.2209 3.37072C10.2209 3.06311 10.1374 2.82588 9.97059 2.65904C9.80897 2.48698 9.58738 2.40095 9.30584 2.40095C9.02429 2.40095 8.8001 2.48959 8.63326 2.66686C8.47163 2.83891 8.39081 3.06832 8.39081 3.35508C8.39081 3.63141 8.46902 3.85821 8.62543 4.03548C8.78706 4.20754 9.0269 4.29356 9.34494 4.29356Z" fill="white"/>
<path d="M17.8894 8.75918C17.3888 8.26908 16.9978 7.64604 16.7163 6.89003C16.4399 6.13403 16.3018 5.31807 16.3018 4.44216C16.3018 3.54538 16.4477 2.70857 16.7397 1.93171C17.0369 1.14964 17.4592 0.505738 18.0067 0H18.7496V0.0703858C18.1657 0.617835 17.7251 1.27738 17.4279 2.04902C17.136 2.81545 16.99 3.61316 16.99 4.44216C16.99 5.25029 17.1281 6.02194 17.4045 6.75708C17.686 7.49223 18.0953 8.13613 18.6323 8.68879V8.75918H17.8894Z" fill="white"/>
<path d="M19.3057 2.29928V1.65017H20.776V7.30453H20.0565V2.29928H19.3057Z" fill="white"/>
<path d="M22.3426 7.35146C22.207 7.35146 22.0923 7.30453 21.9985 7.21068C21.9046 7.11683 21.8577 7.00213 21.8577 6.86657C21.8577 6.73101 21.9046 6.61631 21.9985 6.52246C22.0923 6.42861 22.207 6.38169 22.3426 6.38169C22.4729 6.38169 22.5824 6.42861 22.671 6.52246C22.7649 6.61631 22.8118 6.73101 22.8118 6.86657C22.8118 7.00213 22.7649 7.11683 22.671 7.21068C22.5824 7.30453 22.4729 7.35146 22.3426 7.35146Z" fill="white"/>
<path d="M24.5555 5.78732C24.6077 6.0845 24.7276 6.31391 24.9153 6.47554C25.1082 6.63717 25.3663 6.71798 25.6895 6.71798C26.1223 6.71798 26.4403 6.54853 26.6437 6.20963C26.8522 5.87074 26.9513 5.29983 26.9408 4.4969C26.8313 4.73152 26.6489 4.91661 26.3934 5.05217C26.1379 5.18252 25.8538 5.24769 25.5409 5.24769C25.1916 5.24769 24.8788 5.1773 24.6024 5.03653C24.3313 4.89054 24.1176 4.67938 23.9612 4.40305C23.8047 4.12672 23.7265 3.79304 23.7265 3.402C23.7265 2.84413 23.8882 2.39574 24.2114 2.05684C24.5347 1.71273 24.9935 1.54068 25.5879 1.54068C26.3178 1.54068 26.8287 1.7779 27.1207 2.25236C27.4179 2.72682 27.5665 3.43329 27.5665 4.37177C27.5665 5.02871 27.5065 5.57094 27.3866 5.99848C27.2719 6.42601 27.0738 6.75187 26.7922 6.97606C26.5159 7.20026 26.1353 7.31235 25.6504 7.31235C25.1186 7.31235 24.7041 7.16897 24.4069 6.88221C24.1097 6.59545 23.9403 6.23049 23.8986 5.78732H24.5555ZM25.6582 4.64549C26.0076 4.64549 26.2943 4.53861 26.5185 4.32485C26.7427 4.10587 26.8548 3.81129 26.8548 3.44111C26.8548 3.05007 26.7453 2.73464 26.5263 2.4948C26.3074 2.25497 25.9997 2.13505 25.6035 2.13505C25.2385 2.13505 24.9466 2.24975 24.7276 2.47916C24.5138 2.70857 24.4069 3.01097 24.4069 3.38636C24.4069 3.76697 24.5138 4.07198 24.7276 4.30138C24.9413 4.53079 25.2516 4.64549 25.6582 4.64549Z" fill="white"/>
<path d="M29.599 4.36395C29.307 4.24925 29.0828 4.0824 28.9264 3.86342C28.77 3.64444 28.6918 3.37854 28.6918 3.06571C28.6918 2.78417 28.7621 2.5313 28.9029 2.30711C29.0437 2.0777 29.2522 1.89782 29.5286 1.76748C29.8101 1.63192 30.149 1.56414 30.5453 1.56414C30.9415 1.56414 31.2778 1.63192 31.5541 1.76748C31.8357 1.89782 32.0468 2.0777 32.1876 2.30711C32.3336 2.5313 32.4066 2.78417 32.4066 3.06571C32.4066 3.36811 32.3258 3.63402 32.1641 3.86342C32.0025 4.08762 31.7809 4.25446 31.4994 4.36395C31.8226 4.46301 32.0781 4.63767 32.2658 4.88794C32.4587 5.13298 32.5552 5.43017 32.5552 5.7795C32.5552 6.11839 32.4718 6.41558 32.3049 6.67105C32.1381 6.92132 31.9008 7.11684 31.5932 7.25761C31.2908 7.39317 30.9415 7.46095 30.5453 7.46095C30.149 7.46095 29.7997 7.39317 29.4973 7.25761C29.2001 7.11684 28.9681 6.92132 28.8012 6.67105C28.6344 6.41558 28.551 6.11839 28.551 5.7795C28.551 5.43017 28.6448 5.13038 28.8325 4.88012C29.0202 4.62985 29.2757 4.4578 29.599 4.36395ZM31.7184 3.15174C31.7184 2.8337 31.6141 2.58865 31.4055 2.4166C31.197 2.24454 30.9102 2.15851 30.5453 2.15851C30.1855 2.15851 29.9014 2.24454 29.6928 2.4166C29.4843 2.58865 29.38 2.83631 29.38 3.15956C29.38 3.45153 29.4869 3.68616 29.7006 3.86342C29.9196 4.04069 30.2011 4.12933 30.5453 4.12933C30.8946 4.12933 31.1761 4.04069 31.3899 3.86342C31.6089 3.68094 31.7184 3.44371 31.7184 3.15174ZM30.5453 4.67678C30.1594 4.67678 29.844 4.76802 29.599 4.9505C29.3539 5.12777 29.2314 5.39628 29.2314 5.75603C29.2314 6.08972 29.3487 6.35823 29.5833 6.56156C29.8232 6.7649 30.1438 6.86657 30.5453 6.86657C30.9467 6.86657 31.2648 6.7649 31.4994 6.56156C31.734 6.35823 31.8513 6.08972 31.8513 5.75603C31.8513 5.40671 31.7314 5.14081 31.4916 4.95832C31.2517 4.77062 30.9363 4.67678 30.5453 4.67678Z" fill="white"/>
<path d="M34.4154 5.78732C34.4675 6.0845 34.5875 6.31391 34.7752 6.47554C34.9681 6.63717 35.2262 6.71798 35.5494 6.71798C35.9822 6.71798 36.3002 6.54853 36.5035 6.20963C36.7121 5.87074 36.8111 5.29983 36.8007 4.4969C36.6912 4.73152 36.5087 4.91661 36.2533 5.05217C35.9978 5.18252 35.7136 5.24769 35.4008 5.24769C35.0515 5.24769 34.7387 5.1773 34.4623 5.03653C34.1912 4.89054 33.9774 4.67938 33.821 4.40305C33.6646 4.12672 33.5864 3.79304 33.5864 3.402C33.5864 2.84413 33.748 2.39574 34.0713 2.05684C34.3945 1.71273 34.8534 1.54068 35.4477 1.54068C36.1777 1.54068 36.6886 1.7779 36.9806 2.25236C37.2778 2.72682 37.4264 3.43329 37.4264 4.37177C37.4264 5.02871 37.3664 5.57094 37.2465 5.99848C37.1318 6.42601 36.9337 6.75187 36.6521 6.97606C36.3758 7.20026 35.9952 7.31235 35.5103 7.31235C34.9785 7.31235 34.564 7.16897 34.2668 6.88221C33.9696 6.59545 33.8002 6.23049 33.7585 5.78732H34.4154ZM35.5181 4.64549C35.8675 4.64549 36.1542 4.53861 36.3784 4.32485C36.6026 4.10587 36.7147 3.81129 36.7147 3.44111C36.7147 3.05007 36.6052 2.73464 36.3862 2.4948C36.1672 2.25497 35.8596 2.13505 35.4634 2.13505C35.0984 2.13505 34.8064 2.24975 34.5875 2.47916C34.3737 2.70857 34.2668 3.01097 34.2668 3.38636C34.2668 3.76697 34.3737 4.07198 34.5875 4.30138C34.8012 4.53079 35.1114 4.64549 35.5181 4.64549Z" fill="white"/>
<path d="M43.499 7.30453L42.2008 5.07563H41.3405V7.30453H40.6288V1.85351H42.3885C42.8004 1.85351 43.1471 1.92389 43.4286 2.06466C43.7154 2.20544 43.9292 2.39574 44.0699 2.63558C44.2107 2.87541 44.2811 3.14913 44.2811 3.45675C44.2811 3.83214 44.1716 4.16322 43.9526 4.44998C43.7389 4.73674 43.4156 4.92704 42.9829 5.02089L44.3515 7.30453H43.499ZM41.3405 4.50472H42.3885C42.7743 4.50472 43.0637 4.41087 43.2566 4.22318C43.4495 4.03027 43.5459 3.77479 43.5459 3.45675C43.5459 3.13349 43.4495 2.88323 43.2566 2.70596C43.0689 2.52869 42.7795 2.44006 42.3885 2.44006H41.3405V4.50472Z" fill="white"/>
<path d="M49.2973 4.99743C49.2973 5.13298 49.2895 5.27636 49.2738 5.42756H45.8484C45.8744 5.84988 46.0178 6.18096 46.2785 6.42079C46.5444 6.65541 46.865 6.77272 47.2404 6.77272C47.548 6.77272 47.8035 6.70234 48.0069 6.56156C48.2154 6.41558 48.3614 6.22267 48.4448 5.98283H49.2112C49.0965 6.39472 48.8671 6.73101 48.523 6.9917C48.1789 7.24718 47.7514 7.37492 47.2404 7.37492C46.8338 7.37492 46.4688 7.28368 46.1455 7.10119C45.8275 6.91871 45.5772 6.66063 45.3947 6.32694C45.2123 5.98805 45.121 5.59701 45.121 5.15384C45.121 4.71067 45.2097 4.32224 45.3869 3.98856C45.5642 3.65487 45.8119 3.3994 46.1299 3.22213C46.4531 3.03964 46.8233 2.9484 47.2404 2.9484C47.6471 2.9484 48.0069 3.03704 48.3197 3.21431C48.6325 3.39158 48.8723 3.63662 49.0392 3.94945C49.2112 4.25707 49.2973 4.60639 49.2973 4.99743ZM48.5621 4.84883C48.5621 4.57772 48.5022 4.3457 48.3823 4.15279C48.2623 3.95467 48.0981 3.80607 47.8896 3.70701C47.6862 3.60273 47.4594 3.5506 47.2091 3.5506C46.8494 3.5506 46.5418 3.6653 46.2863 3.89471C46.036 4.12411 45.8927 4.44216 45.8562 4.84883H48.5621Z" fill="white"/>
<path d="M51.8321 6.64759L53.1616 3.01879H53.9202L52.2388 7.30453H51.4098L49.7283 3.01879H50.4948L51.8321 6.64759Z" fill="white"/>
<path d="M54.9881 2.32275C54.8526 2.32275 54.7379 2.27582 54.644 2.18197C54.5502 2.08813 54.5032 1.97342 54.5032 1.83786C54.5032 1.70231 54.5502 1.5876 54.644 1.49375C54.7379 1.3999 54.8526 1.35298 54.9881 1.35298C55.1185 1.35298 55.2279 1.3999 55.3166 1.49375C55.4104 1.5876 55.4574 1.70231 55.4574 1.83786C55.4574 1.97342 55.4104 2.08813 55.3166 2.18197C55.2279 2.27582 55.1185 2.32275 54.9881 2.32275ZM55.3322 3.01879V7.30453H54.6205V3.01879H55.3322Z" fill="white"/>
<path d="M60.4555 4.99743C60.4555 5.13298 60.4477 5.27636 60.4321 5.42756H57.0066C57.0327 5.84988 57.176 6.18096 57.4367 6.42079C57.7026 6.65541 58.0233 6.77272 58.3987 6.77272C58.7063 6.77272 58.9618 6.70234 59.1651 6.56156C59.3737 6.41558 59.5196 6.22267 59.6031 5.98283H60.3695C60.2548 6.39472 60.0254 6.73101 59.6813 6.9917C59.3372 7.24718 58.9096 7.37492 58.3987 7.37492C57.992 7.37492 57.627 7.28368 57.3038 7.10119C56.9857 6.91871 56.7355 6.66063 56.553 6.32694C56.3705 5.98805 56.2793 5.59701 56.2793 5.15384C56.2793 4.71067 56.3679 4.32224 56.5452 3.98856C56.7224 3.65487 56.9701 3.3994 57.2881 3.22213C57.6114 3.03964 57.9816 2.9484 58.3987 2.9484C58.8053 2.9484 59.1651 3.03704 59.4779 3.21431C59.7908 3.39158 60.0306 3.63662 60.1974 3.94945C60.3695 4.25707 60.4555 4.60639 60.4555 4.99743ZM59.7204 4.84883C59.7204 4.57772 59.6604 4.3457 59.5405 4.15279C59.4206 3.95467 59.2563 3.80607 59.0478 3.70701C58.8445 3.60273 58.6177 3.5506 58.3674 3.5506C58.0076 3.5506 57.7 3.6653 57.4445 3.89471C57.1943 4.12411 57.0509 4.44216 57.0144 4.84883H59.7204Z" fill="white"/>
<path d="M67.104 3.01879L65.7667 7.30453H65.0315L63.9992 3.90253L62.9669 7.30453H62.2317L60.8866 3.01879H61.6139L62.5993 6.61631L63.6629 3.01879H64.3902L65.4304 6.62413L66.4002 3.01879H67.104Z" fill="white"/>
<path d="M69.3275 7.37492C68.9991 7.37492 68.7045 7.32017 68.4438 7.21068C68.1831 7.09598 67.9772 6.93957 67.826 6.74144C67.6748 6.5381 67.5914 6.30609 67.5757 6.0454H68.3109C68.3317 6.25916 68.4308 6.43383 68.608 6.56939C68.7905 6.70494 69.0278 6.77272 69.3197 6.77272C69.5908 6.77272 69.8046 6.71277 69.961 6.59285C70.1174 6.47293 70.1956 6.32173 70.1956 6.13925C70.1956 5.95155 70.1122 5.81339 69.9454 5.72475C69.7785 5.6309 69.5205 5.53966 69.1711 5.45103C68.8531 5.36761 68.5924 5.28418 68.3891 5.20076C68.1909 5.11213 68.0189 4.98439 67.8729 4.81755C67.7321 4.64549 67.6617 4.4213 67.6617 4.14497C67.6617 3.92599 67.7269 3.72526 67.8573 3.54278C67.9876 3.36029 68.1727 3.21691 68.4125 3.11264C68.6524 3.00315 68.9261 2.9484 69.2337 2.9484C69.7082 2.9484 70.0914 3.06832 70.3833 3.30815C70.6753 3.54799 70.8317 3.87646 70.8526 4.29356H70.1409C70.1253 4.06937 70.034 3.88949 69.8672 3.75393C69.7055 3.61838 69.4866 3.5506 69.2102 3.5506C68.9548 3.5506 68.7514 3.60534 68.6002 3.71483C68.449 3.82432 68.3734 3.9677 68.3734 4.14497C68.3734 4.28574 68.4177 4.40305 68.5064 4.4969C68.6002 4.58554 68.7149 4.65853 68.8505 4.71588C68.9913 4.76802 69.1842 4.82798 69.4292 4.89576C69.7368 4.97918 69.9871 5.0626 70.18 5.14602C70.3729 5.22423 70.5371 5.34414 70.6727 5.50577C70.8135 5.6674 70.8865 5.87856 70.8917 6.13925C70.8917 6.37387 70.8265 6.58503 70.6962 6.77272C70.5658 6.96042 70.3807 7.10901 70.1409 7.2185C69.9063 7.32278 69.6352 7.37492 69.3275 7.37492Z" fill="white"/>
<path d="M71.6695 8.75918V8.68879C72.2066 8.13613 72.6132 7.49223 72.8896 6.75708C73.1711 6.02194 73.3119 5.25029 73.3119 4.44216C73.3119 3.61316 73.1633 2.81545 72.8661 2.04902C72.5741 1.27738 72.1362 0.617835 71.5522 0.0703858V0H72.2952C72.8426 0.505738 73.2624 1.14964 73.5543 1.93171C73.8515 2.70857 74.0001 3.54538 74.0001 4.44216C74.0001 5.31807 73.8593 6.13403 73.5778 6.89003C73.3015 7.64604 72.913 8.26908 72.4125 8.75918H71.6695Z" fill="white"/>
</svg>
