<svg width="72" height="25" viewBox="0 0 72 25" fill="none" xmlns="http://www.w3.org/2000/svg">
<path d="M70.5505 9.68112C68.2787 9.68112 66.6673 11.4587 66.6673 14.1873V24.1966H63.1994V6.57868H66.6258V8.73004C67.0484 8.017 67.654 7.42996 68.3799 7.02978C69.1058 6.6296 69.9255 6.43083 70.7541 6.45408H72V9.68112H70.5505ZM60.803 15.3876C60.803 10.1338 57.0651 6.20489 52.0065 6.20489C50.8113 6.213 49.6294 6.45737 48.529 6.92392C47.4286 7.39048 46.4313 8.07002 45.5944 8.92344C44.7576 9.77687 44.0978 10.7873 43.6529 11.8967C43.2081 13.0061 42.987 14.1925 43.0023 15.3876C43.0023 20.6373 47.0517 24.6077 52.3346 24.6077C53.8103 24.6356 55.271 24.3083 56.5938 23.6535C57.9165 22.9986 59.0624 22.0354 59.9349 20.8449L57.4181 19.0009C56.8407 19.8068 56.0767 20.4609 55.1914 20.9071C54.3061 21.3534 53.3259 21.5786 52.3346 21.5634C50.9227 21.5568 49.56 21.0446 48.4933 20.1196C47.4266 19.1946 46.7266 17.9181 46.5201 16.5215H60.8113L60.803 15.3876ZM46.5948 13.772C47.2137 11.0849 49.3609 9.2658 51.9649 9.2658C54.569 9.2658 56.7121 11.0849 57.2935 13.772H46.5948ZM32.0171 6.20489C30.8581 6.20586 29.7109 6.43649 28.6416 6.88346C27.5723 7.33042 26.6022 7.98486 25.7873 8.80895V0H22.3193V24.1966H25.7457V21.9622C27.4057 23.6413 29.6643 24.5929 32.0254 24.6077C33.2502 24.6338 34.4679 24.415 35.607 23.9643C36.7461 23.5136 37.7838 22.8399 38.6593 21.9829C39.5347 21.1259 40.2302 20.1028 40.705 18.9735C41.1798 17.8441 41.4244 16.6314 41.4244 15.4063C41.4244 14.1812 41.1798 12.9685 40.705 11.8392C40.2302 10.7099 39.5347 9.68671 38.6593 8.8297C37.7838 7.97269 36.7461 7.29908 35.607 6.84835C34.4679 6.39763 33.2502 6.17887 32.0254 6.20489H32.0171ZM31.7679 21.5095C30.5591 21.5152 29.3759 21.1618 28.3683 20.494C27.3607 19.8261 26.5742 18.8741 26.1086 17.7586C25.643 16.6431 25.5192 15.4144 25.753 14.2284C25.9868 13.0424 26.5676 11.9526 27.4218 11.0973C28.276 10.242 29.365 9.65966 30.5506 9.42423C31.7362 9.18881 32.9651 9.31089 34.0813 9.77499C35.1974 10.2391 36.1505 11.0243 36.8197 12.0309C37.4889 13.0376 37.844 14.2204 37.8399 15.4292C37.841 16.2265 37.6846 17.0161 37.3797 17.7528C37.0749 18.4896 36.6275 19.1588 36.0634 19.7222C35.4992 20.2856 34.8293 20.732 34.0922 21.0359C33.3551 21.3397 32.5652 21.495 31.7679 21.4928V21.5095ZM9.54823 21.3433C12.8957 21.3433 15.4956 18.7766 15.4956 14.9308V0H19.0881V24.1966H15.5372V21.9082C14.7075 22.7656 13.7126 23.4458 12.6125 23.9077C11.5124 24.3695 10.3301 24.6035 9.13706 24.5953C3.97462 24.5953 0 20.8325 0 15.126V0H3.65898V14.9515C3.65898 18.8182 6.1509 21.3433 9.54823 21.3433Z" fill="black"/>
</svg>
