<svg width="152" height="25" viewBox="0 0 152 25" fill="none" xmlns="http://www.w3.org/2000/svg">
<path d="M0 24.1859V0H10.0624C14.3917 0 17.207 3.15434 17.207 7.34962C17.207 11.5449 14.3917 14.7071 10.0624 14.7071H3.8483V24.1702L0 24.1859ZM3.8483 3.26474V11.4739H9.88888C11.813 11.4739 13.3587 9.51823 13.3587 7.34962C13.3587 5.181 11.7815 3.26474 9.88888 3.26474H3.8483ZM36.622 19.1074C37.86 18.863 39.0666 18.6264 40.2652 18.4214C40.5097 19.7935 41.3298 21.4417 44.1135 21.4417C44.7365 21.4417 47.7883 21.2051 47.7883 19.0049C47.7883 14.8491 37.1424 19.139 37.1424 11.6868C37.1424 8.72965 40.0917 6.49794 43.806 6.49794C47.5202 6.49794 50.6746 8.07512 51.195 11.9234C49.957 12.1363 48.7504 12.3729 47.5518 12.6174C47.3073 10.4488 45.9746 9.66018 43.9085 9.66018C42.0869 9.66018 40.8488 10.6223 40.8488 11.6868C40.8488 13.0984 42.1578 13.469 44.216 13.682C48.159 14.092 51.4632 14.9516 51.4632 19.0049C51.4632 22.6482 48.3088 24.5723 44.1135 24.5723C39.6501 24.5723 37.103 22.2066 36.622 19.1074ZM52.4331 9.64441V6.80549H55.4219V1.75854H59.1361V6.77395H62.7399V9.64441H59.1361V19.5017C59.1361 20.8739 59.5462 21.2918 60.7133 21.2918C61.2259 21.2918 62.3614 21.2209 62.3614 21.2209V24.2096C62.3614 24.2096 61.0287 24.3437 59.7118 24.3437C56.447 24.3437 55.3824 22.593 55.3824 19.2652V9.64441H52.4331ZM75.6649 14.5021C75.6649 11.8524 75.0813 9.62075 72.2976 9.62075C69.648 9.62075 68.9303 11.8524 68.9303 14.5021V24.1859H65.2161V6.83704H68.5834L68.9303 8.72176C69.4429 7.75968 71.509 6.49006 73.5357 6.49006C74.5055 6.43318 75.4719 6.6472 76.327 7.10817C77.1821 7.56914 77.8921 8.25888 78.3776 9.10028C79.3081 7.52311 81.532 6.49006 83.5981 6.49006C88.3296 6.49006 89.7806 9.37628 89.7806 14.5336V24.2175H86.1215V14.5021C86.1215 11.884 85.4039 9.5892 82.7543 9.5892C79.9706 9.5892 79.387 11.8209 79.387 14.5021V24.1859H75.6806L75.6649 14.5021ZM96.5151 12.7988C95.3164 12.5937 94.0784 12.3177 92.8403 12.1127C93.2188 8.26439 96.381 6.47429 100.024 6.47429C104.937 6.47429 107.476 8.84005 107.476 13.6189V19.6673C107.476 20.7004 107.681 21.2839 108.407 21.2839C108.709 21.2796 109.009 21.2318 109.298 21.142V24.1702C108.581 24.3645 107.841 24.4574 107.098 24.4462C106.375 24.4926 105.66 24.2628 105.1 23.8032C104.539 23.3436 104.174 22.6885 104.078 21.97C103.411 22.7639 102.582 23.4051 101.646 23.8501C100.71 24.295 99.6886 24.5333 98.6522 24.5487C94.6304 24.5487 92.2252 22.3091 92.2252 19.0286C92.2252 16.3158 94.7329 13.8397 99.3225 13.8397H103.794V12.7988C103.794 11.4582 103.242 9.64441 100.048 9.64441C97.9188 9.64441 96.6097 10.709 96.5388 12.7988M103.794 17.4672V16.6076H99.701C96.6492 16.6076 96.0262 18.1848 96.0262 19.0128C96.0262 20.1799 96.8148 21.3786 99.0859 21.3786C102.106 21.3786 103.817 19.3204 103.817 17.4356M26.2442 24.5645C24.4552 24.5645 22.7064 24.034 21.219 23.0401C19.7315 22.0462 18.5722 20.6336 17.8876 18.9808C17.203 17.328 17.0239 15.5093 17.3729 13.7548C17.7219 12.0002 18.5833 10.3885 19.8483 9.12354C21.1133 7.85856 22.725 6.99709 24.4795 6.64809C26.2341 6.29908 28.0528 6.4782 29.7056 7.16281C31.3583 7.84741 32.771 9.00673 33.7649 10.4942C34.7588 11.9816 35.2892 13.7304 35.2892 15.5194C35.2872 17.9176 34.3335 20.2171 32.6377 21.9129C30.9419 23.6087 28.6424 24.5624 26.2442 24.5645ZM26.2442 9.92829C25.1365 9.9283 24.0536 10.2569 23.1327 10.8724C22.2118 11.488 21.4942 12.3629 21.0706 13.3865C20.6471 14.41 20.5367 15.5362 20.7534 16.6225C20.97 17.7088 21.5041 18.7064 22.2879 19.4891C23.0717 20.2718 24.0701 20.8045 25.1567 21.0196C26.2433 21.2347 27.3693 21.1227 28.3923 20.6978C29.4152 20.2728 30.2891 19.5539 30.9034 18.6321C31.5176 17.7104 31.8447 16.6271 31.8431 15.5194C31.841 14.0358 31.2502 12.6137 30.2004 11.5654C29.1507 10.5171 27.7277 9.92829 26.2442 9.92829ZM132.388 18.1454C133.523 18.4529 134.651 18.792 135.787 19.139C134.998 21.6467 132.632 24.5329 127.901 24.5329C123.169 24.5329 119.723 20.8581 119.723 15.4957C119.723 10.1333 122.878 6.45852 127.727 6.45852C132.577 6.45852 135.566 9.69172 135.566 14.9437C135.576 15.4967 135.553 16.0497 135.495 16.5997H123.556C123.627 19.139 125.377 21.4022 127.885 21.4022C128.889 21.4304 129.875 21.1265 130.689 20.5377C131.503 19.9489 132.1 19.108 132.388 18.1454ZM131.599 13.816C131.497 11.2373 130.259 9.5892 127.712 9.5892C125.164 9.5892 123.832 11.6474 123.729 13.816H131.599ZM137.159 19.1074C138.397 18.8709 139.603 18.6264 140.802 18.4214C141.047 19.7935 141.867 21.4417 144.65 21.4417C145.266 21.4417 148.325 21.2051 148.325 19.0049C148.325 14.8491 137.679 19.1469 137.679 11.6868C137.679 8.73753 140.629 6.49794 144.343 6.49794C148.057 6.49794 151.211 8.07512 151.724 11.9313C150.494 12.1363 149.287 12.3729 148.089 12.6174C147.844 10.4488 146.511 9.66018 144.445 9.66018C142.624 9.66018 141.386 10.6223 141.386 11.6868C141.386 13.0984 142.695 13.4769 144.753 13.682C148.696 14.092 152 14.9516 152 19.0049C152 22.6482 148.846 24.5723 144.65 24.5723C140.187 24.5723 137.64 22.2066 137.159 19.1074ZM108.746 9.64441V6.80549H111.735V1.75854H115.449V6.77395H119.053V9.64441H115.449V19.5017C115.449 20.8739 115.859 21.2918 117.066 21.2918C117.578 21.2918 118.714 21.2209 118.714 21.2209V24.2096C118.714 24.2096 117.389 24.3437 116.064 24.3437C112.807 24.3437 111.735 22.593 111.735 19.2652V9.64441H108.746Z" fill="black"/>
</svg>
