<svg width="167" height="45" viewBox="0 0 167 45" fill="none" xmlns="http://www.w3.org/2000/svg">
<path d="M61.0088 33.5157H64.8197L64.1732 30.5555V12.964H60.5324V20.9941C59.4436 19.7352 57.9124 18.9866 56.1431 18.9866C52.5023 18.9866 49.6781 22.0149 49.6781 26.4043C49.6781 30.8277 52.5023 33.822 56.1431 33.822C57.9464 33.822 59.5116 33.0394 60.6005 31.7123L61.0088 33.5157ZM133.008 22.9336C133.757 22.9336 134.437 23.1378 135.05 23.5801L136.785 19.7011C135.968 19.1907 135.05 18.9866 134.131 18.9866C132.498 18.9866 131.103 19.7352 130.252 21.1302L129.878 19.3268H126.135L126.747 22.117V33.5498H130.388V24.4648C130.864 23.512 131.783 22.9336 133.008 22.9336ZM143.658 30.011C141.549 30.011 139.983 28.616 139.983 26.4383C139.983 24.2266 141.549 22.8656 143.658 22.8656C145.802 22.8656 147.333 24.2266 147.333 26.4383C147.333 28.5819 145.802 30.011 143.658 30.011ZM53.2168 26.4043C53.2168 24.1926 54.782 22.8315 56.8916 22.8315C59.0353 22.8315 60.5664 24.1926 60.5664 26.4043C60.5664 28.5819 59.0353 29.977 56.8916 29.977C54.782 30.011 53.2168 28.5819 53.2168 26.4043ZM159.821 30.011C157.711 30.011 156.146 28.616 156.146 26.4383C156.146 24.2266 157.711 22.8656 159.821 22.8656C161.964 22.8656 163.495 24.2266 163.495 26.4383C163.461 28.5819 161.93 30.011 159.821 30.011ZM73.6665 22.6274C75.5379 22.6274 76.7629 23.512 77.1712 25.1453H70.1618C70.5361 23.478 71.795 22.6274 73.6665 22.6274ZM117.186 22.6274C119.057 22.6274 120.282 23.512 120.691 25.1453H113.681C114.124 23.478 115.348 22.6274 117.186 22.6274ZM99.4242 33.5157H105.277L109.088 19.2588H105.107L102.35 30.8277L99.5603 19.2928H95.6473L99.4242 33.5157ZM90.0671 33.5157H93.7078V19.2588H90.0671V33.5157ZM74.2109 33.7879C76.2525 33.7879 78.226 33.2095 79.8933 32.1547L78.4982 29.0243C77.2052 29.7388 75.7081 30.1131 74.2449 30.1131C72.3395 30.1131 71.0125 29.3645 70.4 27.9695H80.6759C80.7779 27.4251 80.846 26.9487 80.846 26.3022C80.846 21.8788 77.7836 18.9526 73.7345 18.9526C69.6174 18.9526 66.6231 21.9468 66.6231 26.3702C66.5891 30.8957 69.5834 33.7879 74.2109 33.7879ZM167 26.4043C167 21.9809 163.938 18.9866 159.821 18.9866C155.669 18.9866 152.641 22.0149 152.641 26.4043C152.641 30.7936 155.703 33.822 159.821 33.822C163.938 33.822 167 30.8277 167 26.4043ZM117.696 33.822C119.738 33.822 121.711 33.2775 123.379 32.1887L121.984 29.0583C120.691 29.7729 119.193 30.1471 117.73 30.1471C115.825 30.1471 114.498 29.3986 113.885 28.0035H124.161C124.263 27.4591 124.331 26.9827 124.331 26.3362C124.331 21.9128 121.269 18.9866 117.22 18.9866C113.103 18.9866 110.108 21.9809 110.108 26.4043C110.108 30.9638 113.069 33.822 117.696 33.822ZM143.658 33.822C147.809 33.822 150.838 30.7936 150.838 26.4043C150.838 22.0149 147.775 18.9866 143.658 18.9866C139.507 18.9866 136.479 22.0149 136.479 26.4043C136.479 30.7936 139.507 33.822 143.658 33.822ZM83.1598 33.5157H86.8006V12.964H83.1598V33.5157ZM91.9045 17.3193C93.1634 17.3193 94.1842 16.2985 94.1842 15.0055C94.1842 13.7125 93.1975 12.6917 91.9045 12.6917C90.6115 12.6917 89.5907 13.7125 89.5907 15.0055C89.5907 16.2985 90.5775 17.3193 91.9045 17.3193ZM29.3305 0L27.2549 19.7351L23.7162 3.09638L12.5556 5.44418L16.0603 22.0829L0 25.4856L2.85819 38.7557L31.1339 44.7784L37.5988 30.3173L40.6612 1.19091L29.3305 0ZM20.3816 28.65C19.8032 29.1944 19.0546 29.1264 18.204 28.8542C17.3873 28.5819 17.0471 27.6292 17.3193 26.4043C17.5575 25.5196 18.6123 25.3835 19.1907 25.3835C19.3949 25.3835 19.599 25.4175 19.8032 25.5196C20.1775 25.6897 20.824 26.064 20.9601 26.6084C21.1642 27.4251 20.9601 28.1056 20.3816 28.65ZM28.5819 29.5347C28.1396 30.2833 27.0507 30.3853 25.9279 29.8409C25.1793 29.4666 25.1793 28.5819 25.2814 28.0035C25.3154 27.6973 25.4515 27.391 25.6557 27.1528C25.9279 26.8126 26.3702 26.3702 26.8466 26.3702C27.6972 26.3362 28.3778 26.7105 28.7861 27.391C29.1944 28.0715 28.9902 28.8201 28.5819 29.5347Z" fill="#00CCBC"/>
</svg>
