<svg width="50" height="21" viewBox="0 0 50 21" fill="none" xmlns="http://www.w3.org/2000/svg">
<path d="M0 0.900682H5.7592C11.5551 0.900682 16.1619 4.46531 16.1619 10.4762C16.1619 17.0272 12.2028 20.3755 5.7592 20.3755H0V0.900682ZM2.77143 17.9279H5.68709C10.4749 17.9279 13.1388 15.6245 13.1388 10.5837C13.1388 6.04899 10.0422 3.3483 6.0109 3.3483H2.7347V17.9279H2.77143ZM22.6422 2.95238H19.6898V0H22.6422V2.95238ZM19.8341 6.15647H22.4626V20.4123H19.8341V6.15647ZM27.3579 0.900682H33.1171C38.913 0.900682 43.5212 4.46531 43.5212 10.4762C43.5212 17.0272 39.562 20.3755 33.1171 20.3755H27.3579V0.900682ZM30.1661 17.9279H33.0817C37.8695 17.9279 40.5334 15.6245 40.5334 10.5837C40.5334 6.04899 37.4368 3.3483 33.4042 3.3483H30.1293V17.9279H30.1661ZM50.0001 2.95238H47.0477V0H50.0001V2.95238ZM47.2287 6.15647H49.8559V20.4123H47.2287V6.15647Z" fill="#2C2F24"/>
</svg>
