<svg width="72" height="25" viewBox="0 0 72 25" fill="none" xmlns="http://www.w3.org/2000/svg">
<path d="M0 0H16.9771V4.15393H4.58593V10.0525H16.6323V14.0652H4.58593V20.0635H16.9771V24.2174H0V0ZM63.8625 24.6536C69.0674 24.6536 72 22.1612 72 18.7384C72 16.3 70.2637 14.4806 66.629 13.6913L62.7866 12.9062C60.556 12.4909 59.854 12.0755 59.854 11.2447C59.854 10.1688 60.9298 9.50834 62.9112 9.50834C65.0588 9.50834 66.6498 10.0857 67.0652 12.0713H71.568C71.323 8.33278 68.6354 5.86534 63.1854 5.86534C58.4749 5.86534 55.1683 7.80938 55.1683 11.577C55.1683 14.1815 56.9877 15.8763 60.9132 16.7029L65.2084 17.6957C66.9032 18.028 67.356 18.485 67.356 19.187C67.356 20.3044 66.0765 21.0064 64.0079 21.0064C61.4075 21.0064 59.9204 20.429 59.343 18.4434H54.8152C55.4757 22.1737 58.2422 24.6536 63.8625 24.6536ZM53.5068 24.2008H48.6342C45.5769 24.2008 43.8821 22.2983 43.8821 19.8973V10.3848H40.4551V6.33058H43.8987V1.24202H48.4265V6.33058H53.5068V10.3848H48.4265V18.7384C48.4265 19.6896 49.087 20.1465 50.1213 20.1465H53.5068V24.2008ZM33.9833 6.33889V7.95061C32.3891 6.60302 30.3674 5.86678 28.2799 5.87365C27.0302 5.84737 25.7878 6.07081 24.6256 6.53089C23.4633 6.99097 22.4046 7.67843 21.5115 8.55297C20.6183 9.42751 19.9088 10.4715 19.4243 11.6239C18.9399 12.7762 18.6904 14.0136 18.6904 15.2636C18.6904 16.5136 18.9399 17.751 19.4243 18.9033C19.9088 20.0557 20.6183 21.0997 21.5115 21.9742C22.4046 22.8488 23.4633 23.5362 24.6256 23.9963C25.7878 24.4564 27.0302 24.6798 28.2799 24.6536C30.3678 24.6626 32.3902 23.9261 33.9833 22.5766V24.1925H38.4986V6.33058L33.9833 6.33889ZM28.6538 20.7322C27.5707 20.7446 26.5084 20.4347 25.6018 19.8418C24.6953 19.249 23.9855 18.4 23.5626 17.4028C23.1397 16.4056 23.0228 15.3051 23.2268 14.2413C23.4309 13.1776 23.9465 12.1984 24.7083 11.4284C25.4702 10.6584 26.4437 10.1323 27.5053 9.91687C28.5668 9.70147 29.6684 9.80654 30.6701 10.2187C31.6718 10.6309 32.5283 11.3316 33.1308 12.2317C33.7334 13.1319 34.0547 14.1908 34.0539 15.274C34.0605 15.988 33.9254 16.6963 33.6565 17.3578C33.3875 18.0192 32.9901 18.6208 32.4871 19.1277C31.9841 19.6345 31.3856 20.0366 30.7262 20.3106C30.0668 20.5846 29.3596 20.7251 28.6455 20.7239L28.6538 20.7322Z" fill="#05C167"/>
</svg>
