<svg width="51" height="20" viewBox="0 0 51 20" fill="none" xmlns="http://www.w3.org/2000/svg">
<path d="M1.5692 1.02062V19.5958H0V1.02062H1.5692ZM10.2189 9.56828V10.9206H1.04613V9.56828H10.2189ZM11.5075 1.02062V2.37293H1.04613V1.02062H11.5075Z" fill="#2C2F24"/>
<path d="M12.2669 12.9108V12.4898C12.2669 11.4862 12.4115 10.5591 12.7006 9.70862C12.9898 8.85811 13.4023 8.12241 13.9381 7.50154C14.4825 6.88066 15.1331 6.40012 15.8901 6.05991C16.647 5.7112 17.489 5.53685 18.4161 5.53685C19.3517 5.53685 20.1979 5.7112 20.9549 6.05991C21.7118 6.40012 22.3625 6.88066 22.9068 7.50154C23.4511 8.12241 23.8679 8.85811 24.1571 9.70862C24.4462 10.5591 24.5908 11.4862 24.5908 12.4898V12.9108C24.5908 13.9144 24.4462 14.8415 24.1571 15.692C23.8679 16.534 23.4511 17.2654 22.9068 17.8863C22.371 18.5072 21.7246 18.992 20.9676 19.3407C20.2107 19.6809 19.3687 19.851 18.4416 19.851C17.5061 19.851 16.6598 19.6809 15.9028 19.3407C15.1459 18.992 14.4952 18.5072 13.9509 17.8863C13.4066 17.2654 12.9898 16.534 12.7006 15.692C12.4115 14.8415 12.2669 13.9144 12.2669 12.9108ZM13.7851 12.4898V12.9108C13.7851 13.6678 13.8871 14.3864 14.0912 15.0669C14.2954 15.7388 14.593 16.3384 14.9843 16.8657C15.3755 17.3845 15.8603 17.7928 16.4387 18.0904C17.017 18.3881 17.6847 18.537 18.4416 18.537C19.1901 18.537 19.8492 18.3881 20.4191 18.0904C20.9974 17.7928 21.4822 17.3845 21.8734 16.8657C22.2647 16.3384 22.5581 15.7388 22.7537 15.0669C22.9579 14.3864 23.0599 13.6678 23.0599 12.9108V12.4898C23.0599 11.7413 22.9579 11.0312 22.7537 10.3593C22.5581 9.68736 22.2604 9.08774 21.8607 8.56042C21.4694 8.03311 20.9847 7.61635 20.4063 7.31017C19.828 7.00398 19.1646 6.85089 18.4161 6.85089C17.6677 6.85089 17.0043 7.00398 16.4259 7.31017C15.8561 7.61635 15.3713 8.03311 14.9715 8.56042C14.5803 9.08774 14.2826 9.68736 14.0785 10.3593C13.8829 11.0312 13.7851 11.7413 13.7851 12.4898Z" fill="#2C2F24"/>
<path d="M25.9626 12.9108V12.4898C25.9626 11.4862 26.1072 10.5591 26.3964 9.70862C26.6856 8.85811 27.0981 8.12241 27.6339 7.50154C28.1782 6.88066 28.8289 6.40012 29.5858 6.05991C30.3428 5.7112 31.1848 5.53685 32.1119 5.53685C33.0474 5.53685 33.8937 5.7112 34.6506 6.05991C35.4076 6.40012 36.0582 6.88066 36.6026 7.50154C37.1469 8.12241 37.5636 8.85811 37.8528 9.70862C38.142 10.5591 38.2866 11.4862 38.2866 12.4898V12.9108C38.2866 13.9144 38.142 14.8415 37.8528 15.692C37.5636 16.534 37.1469 17.2654 36.6026 17.8863C36.0667 18.5072 35.4204 18.992 34.6634 19.3407C33.9064 19.6809 33.0644 19.851 32.1374 19.851C31.2018 19.851 30.3555 19.6809 29.5986 19.3407C28.8416 18.992 28.191 18.5072 27.6467 17.8863C27.1023 17.2654 26.6856 16.534 26.3964 15.692C26.1072 14.8415 25.9626 13.9144 25.9626 12.9108ZM27.4808 12.4898V12.9108C27.4808 13.6678 27.5829 14.3864 27.787 15.0669C27.9911 15.7388 28.2888 16.3384 28.68 16.8657C29.0713 17.3845 29.5561 17.7928 30.1344 18.0904C30.7128 18.3881 31.3804 18.537 32.1374 18.537C32.8858 18.537 33.545 18.3881 34.1148 18.0904C34.6932 17.7928 35.178 17.3845 35.5692 16.8657C35.9604 16.3384 36.2539 15.7388 36.4495 15.0669C36.6536 14.3864 36.7557 13.6678 36.7557 12.9108V12.4898C36.7557 11.7413 36.6536 11.0312 36.4495 10.3593C36.2539 9.68736 35.9562 9.08774 35.5564 8.56042C35.1652 8.03311 34.6804 7.61635 34.1021 7.31017C33.5237 7.00398 32.8603 6.85089 32.1119 6.85089C31.3634 6.85089 30.7 7.00398 30.1217 7.31017C29.5518 7.61635 29.067 8.03311 28.6673 8.56042C28.276 9.08774 27.9784 9.68736 27.7742 10.3593C27.5786 11.0312 27.4808 11.7413 27.4808 12.4898Z" fill="#2C2F24"/>
<path d="M49.4691 16.9167V0H51V19.5958H49.5711L49.4691 16.9167ZM39.888 12.8343V12.5663C39.888 11.4947 40.0114 10.5294 40.258 9.67035C40.5046 8.80282 40.8576 8.06287 41.3169 7.4505C41.7847 6.82963 42.346 6.35759 43.0009 6.0344C43.6558 5.7027 44.3958 5.53685 45.2207 5.53685C46.0287 5.53685 46.7432 5.66868 47.364 5.93234C47.9849 6.196 48.5165 6.57447 48.9588 7.06777C49.4095 7.56107 49.771 8.14793 50.0432 8.82834C50.3238 9.50875 50.528 10.2657 50.6555 11.0992V14.5055C50.5535 15.288 50.3664 16.0067 50.0942 16.6616C49.822 17.308 49.4606 17.8736 49.0098 18.3583C48.559 18.8346 48.0147 19.2046 47.3768 19.4683C46.7474 19.7234 46.0202 19.851 45.1952 19.851C44.3787 19.851 43.643 19.6809 42.9882 19.3407C42.3333 19.0005 41.7762 18.5199 41.3169 17.8991C40.8576 17.2697 40.5046 16.5255 40.258 15.6665C40.0114 14.8075 39.888 13.8634 39.888 12.8343ZM41.419 12.5663V12.8343C41.419 13.6422 41.4998 14.3907 41.6614 15.0796C41.8229 15.7685 42.0696 16.3681 42.4013 16.8785C42.733 17.3888 43.154 17.7885 43.6643 18.0777C44.1746 18.3669 44.7785 18.5114 45.4759 18.5114C46.3519 18.5114 47.0876 18.3456 47.683 18.0139C48.2783 17.6737 48.7546 17.2272 49.1119 16.6743C49.4691 16.113 49.7285 15.5006 49.8901 14.8372V10.8696C49.788 10.4188 49.6392 9.95952 49.4436 9.49174C49.2479 9.02396 48.98 8.59445 48.6398 8.20321C48.3081 7.80347 47.8829 7.48452 47.364 7.24638C46.8537 6.99973 46.2329 6.87641 45.5014 6.87641C44.7955 6.87641 44.1874 7.02099 43.6771 7.31017C43.1668 7.59934 42.7415 8.00334 42.4013 8.52215C42.0696 9.03246 41.8229 9.63207 41.6614 10.321C41.4998 11.0099 41.419 11.7584 41.419 12.5663Z" fill="#2C2F24"/>
</svg>
