<svg width="20" height="18" viewBox="0 0 20 18" fill="none" xmlns="http://www.w3.org/2000/svg">
<path d="M10.0029 4.34775C8.98877 4.34775 7.99741 4.61605 7.15418 5.11873C6.31096 5.62142 5.65374 6.3359 5.26565 7.17183C4.87756 8.00776 4.77601 8.9276 4.97386 9.81502C5.17171 10.7024 5.66006 11.5176 6.37717 12.1574C7.09427 12.7972 8.00792 13.2329 9.00257 13.4094C9.99722 13.5859 11.0282 13.4953 11.9651 13.1491C12.9021 12.8028 13.7029 12.2165 14.2663 11.4641C14.8297 10.7118 15.1305 9.82733 15.1305 8.92252C15.1317 8.32146 14.9998 7.7261 14.7426 7.17059C14.4853 6.61507 14.1077 6.11033 13.6313 5.68532C13.1549 5.2603 12.5892 4.92336 11.9665 4.69383C11.3439 4.4643 10.6766 4.34669 10.0029 4.34775ZM10.0029 11.896C9.34374 11.896 8.69937 11.7216 8.1513 11.3949C7.60322 11.0682 7.17605 10.6038 6.92379 10.0604C6.67154 9.5171 6.60554 8.91923 6.73414 8.34242C6.86273 7.76562 7.18015 7.23579 7.64625 6.81994C8.11236 6.40409 8.70621 6.12089 9.35271 6.00615C9.99921 5.89142 10.6693 5.9503 11.2783 6.17536C11.8873 6.40042 12.4078 6.78154 12.774 7.27053C13.1402 7.75952 13.3357 8.33442 13.3357 8.92252C13.3339 9.71066 12.9822 10.4661 12.3576 11.0234C11.733 11.5807 10.8863 11.8944 10.0029 11.896ZM16.5351 4.16071C16.5351 4.37178 16.465 4.57811 16.3335 4.75361C16.2021 4.9291 16.0153 5.06589 15.7967 5.14666C15.5782 5.22743 15.3377 5.24857 15.1056 5.20739C14.8736 5.16621 14.6605 5.06457 14.4932 4.91532C14.3259 4.76608 14.212 4.57592 14.1658 4.36891C14.1197 4.1619 14.1434 3.94732 14.2339 3.75232C14.3244 3.55732 14.4777 3.39064 14.6744 3.27338C14.8712 3.15612 15.1024 3.09353 15.339 3.09353C15.4963 3.093 15.6521 3.12024 15.7976 3.17367C15.943 3.2271 16.0752 3.30567 16.1865 3.40486C16.2978 3.50405 16.386 3.6219 16.446 3.75162C16.506 3.88134 16.5367 4.02037 16.5362 4.16071H16.5351ZM19.9262 5.2429C19.9593 3.85572 19.379 2.51269 18.3108 1.50426C17.1783 0.5545 15.6745 0.0372912 14.1204 0.0630108C12.4692 -0.0210036 7.52096 -0.0210036 5.86969 0.0630108C4.31609 0.0353583 2.81205 0.551225 1.6793 1.50026C0.615785 2.51087 0.0383065 3.85296 0.0706246 5.2389C-0.0235415 6.71215 -0.0235415 11.1269 0.0706246 12.6002C0.0375844 13.9873 0.617883 15.3304 1.68602 16.3388C2.81894 17.2873 4.32193 17.804 5.87529 17.779C7.52656 17.8631 12.4748 17.8631 14.126 17.779C15.6808 17.8085 17.1861 17.2908 18.3164 16.3378C19.3786 15.3268 19.9563 13.9856 19.9262 12.6002C20.0249 11.1269 20.0249 6.71615 19.9262 5.2429ZM17.7963 14.1784C17.6266 14.5635 17.3698 14.9132 17.0419 15.2057C16.714 15.4982 16.3221 15.7273 15.8905 15.8787C14.5744 16.3448 11.4501 16.2368 9.99618 16.2368C8.54221 16.2368 5.41343 16.3368 4.10183 15.8787C3.67027 15.7273 3.27832 15.4982 2.95043 15.2057C2.62254 14.9132 2.36575 14.5635 2.19609 14.1784C1.67369 13.0042 1.79476 10.2167 1.79476 8.91953C1.79476 7.6223 1.68266 4.83083 2.19609 3.66063C2.36575 3.2756 2.62254 2.92589 2.95043 2.63335C3.27832 2.34081 3.67027 2.11171 4.10183 1.96034C5.41791 1.49426 8.54221 1.60227 9.99618 1.60227C11.4501 1.60227 14.5789 1.50226 15.8905 1.96034C16.3221 2.11171 16.714 2.34081 17.0419 2.63335C17.3698 2.92589 17.6266 3.2756 17.7963 3.66063C18.3187 4.83483 18.1976 7.6223 18.1976 8.91953C18.1976 10.2167 18.3209 13.0102 17.7963 14.1784Z" fill="#FDCE77"/>
</svg>
