<svg width="23" height="22" viewBox="0 0 23 22" fill="none" xmlns="http://www.w3.org/2000/svg">
<path d="M10.5269 0.706761C10.8332 -0.235944 12.1668 -0.235943 12.4731 0.706762L14.4865 6.90311C14.6234 7.3247 15.0163 7.61014 15.4596 7.61014H21.9748C22.966 7.61014 23.3782 8.87854 22.5763 9.46117L17.3053 13.2907C16.9467 13.5513 16.7966 14.0131 16.9336 14.4347L18.9469 20.6311C19.2532 21.5738 18.1743 22.3577 17.3724 21.7751L12.1014 17.9455C11.7428 17.685 11.2572 17.685 10.8986 17.9455L5.62763 21.7751C4.82572 22.3577 3.74676 21.5738 4.05306 20.6311L6.06637 14.4347C6.20336 14.0131 6.05329 13.5513 5.69467 13.2907L0.423735 9.46117C-0.378177 8.87854 0.0339524 7.61014 1.02517 7.61014H7.5404C7.98369 7.61014 8.37656 7.3247 8.51354 6.90311L10.5269 0.706761Z" fill="#FFBE1A"/>
</svg>
