<svg width="51" height="40" viewBox="0 0 51 40" fill="none" xmlns="http://www.w3.org/2000/svg">
<rect width="1614" height="3490" transform="translate(-1332.94 -323.241) scale(1.00626)" fill="#0D0D0D"/>
<path d="M24.4024 40C13.6349 40 4.90603 31.2712 4.90603 20.5036C4.90603 9.73607 13.6349 1.00725 24.4024 1.00725C35.17 1.00725 43.8988 9.73607 43.8988 20.5036C43.8988 31.2712 35.17 40 24.4024 40Z" fill="#FFDA6A"/>
<g filter="url(#filter0_f_0_1)">
<path d="M35.6677 24.4031C33.7535 24.4031 32.2017 22.8513 32.2017 20.9371C32.2017 19.0229 33.7535 17.4711 35.6677 17.4711C37.582 17.4711 39.1338 19.0229 39.1338 20.9371C39.1338 22.8513 37.582 24.4031 35.6677 24.4031Z" fill="#F6687B"/>
</g>
<g filter="url(#filter1_f_0_1)">
<path d="M15.3046 18.7704C13.3904 18.7704 11.8386 17.2186 11.8386 15.3044C11.8386 13.3901 13.3904 11.8383 15.3046 11.8383C17.2189 11.8383 18.7707 13.3901 18.7707 15.3044C18.7707 17.2186 17.2189 18.7704 15.3046 18.7704Z" fill="#F6687B"/>
</g>
<path fill-rule="evenodd" clip-rule="evenodd" d="M29.2757 13.4382C30.163 10.7074 33.096 9.21295 35.8269 10.1002C38.5577 10.9875 40.0521 13.9206 39.1648 16.6514C39.017 17.1065 38.5281 17.3556 38.073 17.2077C37.6179 17.0599 37.3688 16.571 37.5167 16.1159C38.1082 14.2953 37.1119 12.34 35.2913 11.7484C33.4708 11.1569 31.5154 12.1532 30.9239 13.9738C30.776 14.4289 30.2872 14.678 29.832 14.5301C29.3769 14.3822 29.1278 13.8934 29.2757 13.4382ZM15.4116 9.1057C16.2989 6.37489 19.232 4.88042 21.9628 5.76772C24.6936 6.65501 26.1881 9.58807 25.3008 12.3189C25.1529 12.774 24.664 13.0231 24.2089 12.8752C23.7538 12.7273 23.5047 12.2385 23.6526 11.7834C24.2441 9.96281 23.2478 8.00744 21.4272 7.41591C19.6067 6.82438 17.6513 7.82069 17.0598 9.64123C16.9119 10.0964 16.4231 10.3454 15.9679 10.1976C15.5128 10.0497 15.2637 9.56084 15.4116 9.1057ZM33.41 21.7576C32.9058 22.766 29.9841 23.9764 27.3609 24.0773C23.5999 24.222 20.2763 22.4393 18.0116 18.3217C17.781 17.9024 17.9339 17.3755 18.3533 17.1449C18.7726 16.9142 19.2995 17.0672 19.5301 17.4865C21.4712 21.0157 24.1743 22.4656 27.2943 22.3456C28.4596 22.3008 29.6196 22.0284 30.6244 21.6121C31.0275 21.4452 31.3805 21.264 31.6426 21.0959C31.7503 21.0269 31.8351 20.9647 31.8903 20.9165C31.9009 20.9072 31.8933 20.9159 31.8599 20.9826C32.0739 20.5546 32.5944 20.3811 33.0225 20.5951C33.4505 20.8091 33.624 21.3296 33.41 21.7576Z" fill="white"/>
<defs>
<filter id="filter0_f_0_1" x="20.3635" y="5.63267" width="30.6086" height="30.6086" filterUnits="userSpaceOnUse" color-interpolation-filters="sRGB">
<feFlood flood-opacity="0" result="BackgroundImageFix"/>
<feBlend mode="normal" in="SourceGraphic" in2="BackgroundImageFix" result="shape"/>
<feGaussianBlur stdDeviation="5.88235" result="effect1_foregroundBlur_0_1"/>
</filter>
<filter id="filter1_f_0_1" x="0.000433761" y="-5.75789e-05" width="30.6086" height="30.6086" filterUnits="userSpaceOnUse" color-interpolation-filters="sRGB">
<feFlood flood-opacity="0" result="BackgroundImageFix"/>
<feBlend mode="normal" in="SourceGraphic" in2="BackgroundImageFix" result="shape"/>
<feGaussianBlur stdDeviation="5.88235" result="effect1_foregroundBlur_0_1"/>
</filter>
</defs>
</svg>
