<svg width="32" height="15" viewBox="0 0 32 15" fill="none" xmlns="http://www.w3.org/2000/svg">
<g clip-path="url(#clip0_0_1)">
<rect width="1614" height="3948" transform="translate(-293.515 -1444.34) scale(1.02531)" fill="#0D0D0D"/>
<path d="M-0.000154718 12.051C2.68665 11.6219 5.31839 11.1599 7.98211 10.7891C11.9923 10.234 15.6178 9.0653 19.3239 8.00649C21.4211 7.40871 23.6368 6.92539 25.8915 6.6485C27.4914 6.45024 29.2467 6.6335 30.9274 6.74127C31.9911 6.81109 32.0275 6.92818 31.9493 7.7556C28.3031 7.1742 24.8121 7.40987 21.4443 8.25018C24.9035 7.72998 28.3777 7.37083 32 8.27315C31.7945 9.85743 30.8787 11.1212 29.3437 12.1394C27.1743 13.576 24.5657 14.4901 21.5045 14.7062C17.5629 14.9851 14.4096 13.7592 11.9003 11.5637C11.532 11.2409 11.1952 11.1277 10.6483 11.1625C8.4846 11.2951 6.46917 11.6942 4.56828 12.3549C3.71554 12.6533 2.82561 12.9269 1.8986 13.1037C0.749621 13.3336 0.166267 12.9831 -0.000154718 12.051Z" fill="#F65F5F"/>
<path d="M14.6939 9.06222C14.2167 8.32271 13.7655 7.28841 14.3941 6.44238C14.621 6.13579 14.8418 6.05126 15.0526 5.79232C15.4631 5.28034 15.6037 4.35797 14.1842 2.56062C14.5957 2.73363 15.1479 3.01597 15.5704 3.4632C16.0523 3.97238 16.0696 4.37675 16.2663 4.80883C16.497 5.32027 17.0423 6.00775 18.4473 6.7378C18.2654 6.46058 18.0562 6.07326 17.9412 5.59704C17.8316 5.12898 17.8476 4.72912 17.8952 4.44197C18.0908 4.72709 18.389 5.08945 18.8435 5.46358C19.1463 5.71208 19.4486 5.91068 19.719 6.06589C19.3256 5.73978 18.7898 5.22396 18.3772 4.52959C18.062 3.99859 17.6639 3.10685 17.7888 2.02411C17.8961 1.09724 18.3441 0.40382 18.6678 -7.54972e-05C18.6979 0.337343 18.8214 0.979698 19.4178 1.65726C20.3335 2.70207 21.7474 3.13231 22.1539 3.25279C23.1721 3.55391 23.3389 3.36845 25.3049 3.68167C26.8407 3.92509 27.6089 4.04817 28.3564 4.42705C28.7832 4.64119 29.7915 5.23659 30.267 6.57521C29.3777 6.50304 28.1836 6.45145 26.7961 6.52514C25.2435 6.60673 24.1014 6.80868 23.3302 6.94916C22.1497 7.16339 21.215 7.41435 19.3451 7.91351C18.2592 8.20523 17.4867 8.43172 16.1049 8.74929C15.5163 8.88963 15.027 8.99361 14.6939 9.06222Z" fill="#FDCE77"/>
<path d="M23.9597 6.6202C23.9877 6.66408 24.8387 6.39134 26.0611 6.23569C27.5151 6.05042 28.8125 6.11621 29.7746 6.22604C29.7029 5.76391 29.4567 5.44991 29.302 5.28689C28.8966 4.85476 28.3466 4.62576 27.7532 4.38133C27.2913 4.18875 26.8824 4.06723 26.6041 3.992C26.9946 4.17283 27.4848 4.43446 27.9802 4.79665C28.4942 5.17224 28.8469 5.53608 29.0842 5.82239C28.4514 5.77501 27.5246 5.7508 26.4691 5.90404C25.0402 6.1165 23.9266 6.57087 23.9597 6.6202Z" fill="#0D0D0D"/>
</g>
<defs>
<clipPath id="clip0_0_1">
<rect width="1614" height="3948" fill="white" transform="translate(-293.515 -1444.34) scale(1.02531)"/>
</clipPath>
</defs>
</svg>
