<svg width="13" height="13" viewBox="0 0 13 13" fill="none" xmlns="http://www.w3.org/2000/svg">
<path d="M0.761556 0.761556H2.03674L2.29178 2.03674M3.31192 7.13747H9.68784L12.2382 2.03674H2.29178M3.31192 7.13747L2.29178 2.03674M3.31192 7.13747L1.84999 8.5994C1.44833 9.00106 1.73281 9.68784 2.30084 9.68784H9.68784M9.68784 9.68784C8.98357 9.68784 8.41266 10.2588 8.41266 10.963C8.41266 11.6673 8.98357 12.2382 9.68784 12.2382C10.3921 12.2382 10.963 11.6673 10.963 10.963C10.963 10.2588 10.3921 9.68784 9.68784 9.68784ZM4.58711 10.963C4.58711 11.6673 4.01619 12.2382 3.31192 12.2382C2.60766 12.2382 2.03674 11.6673 2.03674 10.963C2.03674 10.2588 2.60766 9.68784 3.31192 9.68784C4.01619 9.68784 4.58711 10.2588 4.58711 10.963Z" stroke="white" stroke-width="1.5" stroke-linecap="round" stroke-linejoin="round"/>
</svg>
