<svg width="411" height="120" viewBox="0 0 411 120" fill="none" xmlns="http://www.w3.org/2000/svg">
<path d="M410.333 120L408.161 108.651L399.418 116.207L410.333 120ZM9.95776 93.02L-0.000200899 97.8995L9.05874 105.074L11.5268 94.2626L9.95776 93.02ZM12.889 92.7434C14.5776 90.7223 16.2702 88.7402 17.9665 86.7967L16.4585 85.4806C14.7527 87.4351 13.0508 89.4281 11.353 91.4601L12.889 92.7434ZM23.282 80.8448C25.0852 78.8723 26.8923 76.9424 28.703 75.0544L27.2585 73.669C25.4366 75.5686 23.6186 77.5102 21.8048 79.4944L23.282 80.8448ZM34.1766 69.4854C36.0962 67.5803 38.0195 65.7213 39.9464 63.9078L38.5746 62.4503C36.6347 64.2761 34.6986 66.1474 32.7667 68.0648L34.1766 69.4854ZM45.7372 58.6027C47.7339 56.823 49.734 55.0911 51.7373 53.406L50.4489 51.8743C48.4309 53.5718 46.4163 55.3163 44.4055 57.1086L45.7372 58.6027ZM57.8744 48.3969C59.9492 46.7548 62.0268 45.1619 64.1071 43.6174L62.914 42.0104C60.817 43.5674 58.723 45.1728 56.6323 46.8275L57.8744 48.3969ZM70.5813 38.971C72.7428 37.4727 74.9067 36.0254 77.0727 34.6281L75.9877 32.9462C73.8029 34.3557 71.6206 35.8153 69.4411 37.326L70.5813 38.971ZM83.8657 30.4123C86.1319 29.0608 88.4 27.7627 90.6695 26.5169L89.7064 24.7623C87.4159 26.0197 85.1271 27.3296 82.8405 28.6932L83.8657 30.4123ZM97.7152 22.818C100.078 21.6337 102.442 20.5048 104.806 19.43L103.978 17.6079C101.59 18.6933 99.2036 19.8331 96.8184 21.0287L97.7152 22.818ZM112.094 16.2873C114.541 15.2889 116.988 14.3471 119.435 13.4605L118.753 11.5788C116.281 12.4744 113.809 13.4257 111.338 14.4342L112.094 16.2873ZM126.942 10.9114C129.459 10.1137 131.975 9.3731 134.489 8.68809L133.962 6.75699C131.422 7.44917 128.88 8.19749 126.337 9.00341L126.942 10.9114ZM142.178 6.76345C144.748 6.17661 147.316 5.64649 149.881 5.17152L149.517 3.20348C146.925 3.68345 144.33 4.21915 141.732 4.81216L142.178 6.76345ZM157.704 3.89084C160.314 3.51917 162.921 3.20324 165.523 2.94138L165.322 0.949938C162.693 1.21453 160.06 1.53376 157.422 1.90933L157.704 3.89084ZM173.416 2.31029C176.049 2.15387 178.677 2.0515 181.299 2.00145L181.261 0.000312264C178.612 0.0508723 175.958 0.154284 173.297 0.312315L173.416 2.31029ZM189.207 2.00774C191.845 2.06196 194.476 2.16785 197.1 2.32363L197.218 0.32565C194.569 0.168358 191.912 0.0614211 189.248 0.00666784L189.207 2.00774ZM204.979 2.94191C207.605 3.19784 210.222 3.50254 212.831 3.85418L213.098 1.87062C210.466 1.51575 207.824 1.2082 205.173 0.949853L204.979 2.94191ZM220.643 5.0504C223.243 5.49612 225.834 5.98734 228.414 6.52221L228.82 4.56238C226.218 4.02289 223.605 3.52736 220.981 3.07767L220.643 5.0504ZM236.126 8.25698C238.691 8.87889 241.244 9.5428 243.784 10.2469L244.319 8.31804C241.758 7.60832 239.184 6.93896 236.598 6.31186L236.126 8.25698ZM251.372 12.4786C253.892 13.2625 256.399 14.0847 258.892 14.9435L259.544 13.0512C257.032 12.1859 254.506 11.3574 251.967 10.5675L251.372 12.4786ZM266.335 17.6303C268.805 18.5623 271.259 19.529 273.699 20.5286L274.458 18.6766C272.001 17.67 269.529 16.6964 267.042 15.7577L266.335 17.6303ZM280.984 23.6309C283.398 24.6977 285.796 25.7957 288.177 26.923L289.034 25.114C286.637 23.9794 284.223 22.8741 281.793 21.8001L280.984 23.6309ZM295.296 30.4048C297.654 31.5952 299.994 32.8132 302.315 34.0569L303.26 32.2927C300.925 31.0414 298.571 29.8159 296.198 28.6181L295.296 30.4048ZM309.256 37.8835C311.557 39.188 313.838 40.5167 316.099 41.8675L317.126 40.1494C314.852 38.7909 312.558 37.4545 310.242 36.1423L309.256 37.8835ZM322.851 46.0058C325.096 47.4164 327.318 48.8477 329.518 50.2975L330.619 48.6264C328.408 47.1687 326.173 45.7296 323.915 44.3111L322.851 46.0058ZM336.07 54.7177C338.259 56.2281 340.423 57.7554 342.56 59.2977L343.731 57.6745C341.582 56.1242 339.407 54.5888 337.207 53.0704L336.07 54.7177ZM348.928 63.9907C351.052 65.5899 353.148 67.2022 355.216 68.8254L356.451 67.2511C354.373 65.6197 352.266 63.9991 350.131 62.3917L348.928 63.9907ZM361.404 73.7845C363.456 75.4626 365.477 77.1495 367.465 78.8428L368.763 77.3189C366.764 75.6171 364.733 73.9217 362.671 72.2352L361.404 73.7845ZM373.473 84.0617C375.465 85.8274 377.422 87.5972 379.342 89.3685L380.699 87.8974C378.769 86.1172 376.803 84.3384 374.801 82.5639L373.473 84.0617ZM385.103 94.7914C387.039 96.6499 388.932 98.5069 390.783 100.359L392.199 98.9445C390.338 97.0825 388.435 95.2159 386.49 93.3478L385.103 94.7914ZM396.311 106.01C398.161 107.941 399.963 109.864 401.714 111.774L403.189 110.422C401.428 108.5 399.617 106.567 397.757 104.625L396.311 106.01Z" fill="#FDCE77"/>
</svg>
